<?xml version="1.0" standalone="no"?>
<!DOCTYPE svg PUBLIC "-//W3C//DTD SVG 1.1//EN" "http://www.w3.org/Graphics/SVG/1.1/DTD/svg11.dtd" >
<svg xmlns="http://www.w3.org/2000/svg">
<metadata></metadata>
<defs>
<font id="akzidenz-grotesk_std_med_cnRg" horiz-adv-x="313" >
<font-face units-per-em="1000" ascent="750" descent="-250" />
<missing-glyph horiz-adv-x="187" />
<glyph unicode="&#xfb01;" horiz-adv-x="354" d="M9 468v68h45v97q0 26 6.5 41t17 22t24 8.5t27.5 1.5q26 0 51 -3v-68h-14q-14 0 -22 -5.5t-8 -25.5v-68h46v-68h-47v-468h-82v468h-44zM229 0v536h80v-536h-80zM230 597v106h80v-106h-80z" />
<glyph unicode="&#xfb02;" horiz-adv-x="354" d="M9 468v68h45v97q0 26 6.5 41t17 22t24 8.5t27.5 1.5q26 0 51 -3v-68h-14q-14 0 -22 -5.5t-8 -25.5v-68h46v-68h-47v-468h-82v468h-44zM229 0v706h82v-706h-82z" />
<glyph horiz-adv-x="1000" />
<glyph horiz-adv-x="1000" />
<glyph unicode="&#xd;" horiz-adv-x="187" />
<glyph unicode=" "  horiz-adv-x="187" />
<glyph unicode="&#x09;" horiz-adv-x="187" />
<glyph unicode="&#xa0;" horiz-adv-x="187" />
<glyph unicode="!" horiz-adv-x="187" d="M70 0v129h81v-129h-81zM70 452v247h80v-272l-18 -206h-43z" />
<glyph unicode="&#x22;" horiz-adv-x="255" d="M29 741h77l-23 -289h-29zM148 741h78l-23 -289h-29z" />
<glyph unicode="#" horiz-adv-x="537" d="M20 228v82h125l9 101h-121v80h128l21 215h86l-22 -215h78l21 215h84l-21 -215h108v-80h-114l-9 -101h111v-82h-120l-21 -228h-84l21 228h-77l-22 -228h-85l21 228h-117zM230 310h78l9 101h-78z" />
<glyph unicode="$" horiz-adv-x="333" d="M30 239v13h83v-18q0 -86 9 -126.5t47 -40.5q56 0 56 83q0 26 -5 46.5t-12.5 36.5t-15.5 27.5t-15 20.5l-46 59q-20 26 -38 52t-31.5 53.5t-21 58t-7.5 64.5q0 44 14 72t32 43.5t35.5 22t25.5 7.5v58h46v-57q24 -4 44 -12.5t35 -27t23.5 -49t8.5 -79.5v-55h-79v74 q0 24 -5 38.5t-12.5 23t-16.5 11.5t-16 3q-20 0 -35.5 -17t-15.5 -58q0 -12 2.5 -26t9.5 -32t20.5 -40.5t35.5 -52.5l43 -57q19 -25 34.5 -49t26 -49t16 -51.5t5.5 -57.5q0 -47 -13 -76.5t-31.5 -46.5t-40 -24t-38.5 -9v-70h-46v70q-11 2 -32 9.5t-41 29.5q-27 29 -32 78.5 t-6 126.5z" />
<glyph unicode="%" horiz-adv-x="583" d="M22 395v195q0 19 1.5 40.5t10.5 39.5t28 30t54 12q34 0 52.5 -11.5t27 -29t10 -37.5t1.5 -37v-234q0 -14 -1.5 -32t-10 -34t-27 -27t-53.5 -11t-54 11.5t-27.5 30.5t-10 43.5t-1.5 50.5zM80 363q0 -21 4.5 -37.5t30.5 -16.5q13 0 20 4t10 11.5t3.5 17t0.5 21.5v252 q0 9 -0.5 18t-3.5 16t-10 11t-20 4q-25 0 -30 -14t-5 -35v-252zM115 -5l308 736l49 -20l-309 -736zM376 130v195q0 19 1.5 40.5t10.5 39.5t28 30t54 12q34 0 52.5 -11.5t27 -29t10 -37.5t1.5 -37v-234q0 -14 -1.5 -32t-10 -34t-27 -27t-53.5 -11t-54 11.5t-27.5 30.5 t-10 43.5t-1.5 50.5zM434 98q0 -21 4.5 -37.5t30.5 -16.5q13 0 20 4t10 11.5t3.5 17t0.5 21.5v252q0 9 -0.5 18t-3.5 16t-10 11t-20 4q-25 0 -30 -14t-5 -35v-252z" />
<glyph unicode="&#x26;" horiz-adv-x="437" d="M29 181q0 37 8 66.5t20 53t25 41t23 29.5q-12 24 -27 64t-15 97q0 23 6 51.5t22 53.5t42.5 42t66.5 17q21 0 41 -7t36.5 -21.5t26.5 -37.5t10 -56q0 -30 -9.5 -59t-25 -55.5t-34.5 -51t-38 -45.5q19 -44 41.5 -84t45.5 -79q6 17 9.5 31t6 31t4 38.5t2.5 53.5h80 q-1 -59 -8 -117.5t-36 -111.5q29 -25 47.5 -32t37.5 -9v-91q-20 3 -35.5 6.5t-30 9.5t-29.5 15.5t-33 23.5q-6 -7 -16 -17t-24.5 -19t-33.5 -15t-45 -6q-41 0 -71 15.5t-50 42t-30 61t-10 71.5zM112 192q0 -21 4.5 -41.5t13.5 -37.5t24 -27.5t36 -10.5q13 0 22.5 4.5 t17 10.5t12 12t6.5 9q-29 45 -53.5 88t-47.5 90q-17 -24 -26 -46t-9 -51zM145 548q0 -38 9 -65.5t14 -39.5q11 14 22.5 29.5t21 32.5t15.5 35t6 37q0 29 -12 39t-26 10q-20 0 -35 -19t-15 -59z" />
<glyph unicode="'" horiz-adv-x="135" d="M29 741h77l-23 -289h-29z" />
<glyph unicode="(" horiz-adv-x="250" d="M31 274q0 64 11.5 129t36.5 125t63 111.5t92 88.5v-59q-16 -14 -26 -26t-21 -31q-21 -35 -34 -82.5t-20.5 -98t-10 -100.5t-2.5 -91q0 -49 4.5 -102.5t17.5 -105t35 -99t56 -84.5v-59q-56 40 -94.5 96t-62.5 120t-34.5 133t-10.5 135z" />
<glyph unicode=")" horiz-adv-x="250" d="M16 -152q36 31 58.5 82t35 111t16.5 122.5t4 115.5q0 44 -4 93t-14.5 98t-28.5 94.5t-45 80.5q-5 6 -10 11.5t-10 11.5v60q27 -22 50.5 -44.5t43.5 -50.5q29 -40 49.5 -88t33 -99t18.5 -103.5t6 -100.5q0 -55 -9 -112t-27.5 -111t-48 -103t-70.5 -88q-11 -11 -23 -20.5 t-25 -17.5v58z" />
<glyph unicode="*" horiz-adv-x="320" d="M15 578l17 58l95 -26v99h61v-101l96 33l20 -56l-96 -35l59 -79l-48 -38l-61 81l-55 -81l-50 37l55 80z" />
<glyph unicode="+" horiz-adv-x="558" d="M83 260v76h154v168h86v-168h152v-76h-152v-168h-86v168h-154z" />
<glyph unicode="," horiz-adv-x="146" d="M31 0v129h80v-107q0 -30 -1.5 -52.5t-9 -40.5t-23 -33t-42.5 -31v22q25 18 30.5 41t5.5 50v22h-40z" />
<glyph unicode="-" horiz-adv-x="229" d="M26 249v84h177v-84h-177z" />
<glyph unicode="." horiz-adv-x="146" d="M30 0v132h82v-132h-82z" />
<glyph unicode="/" horiz-adv-x="250" d="M9 0l153 706h77l-152 -706h-78z" />
<glyph unicode="0" horiz-adv-x="354" d="M32 162v408q0 23 4.5 48.5t20 47t44.5 35.5t78 14t77.5 -14.5t43 -36.5t18.5 -48.5t4 -50.5v-413q0 -27 -2 -46t-6.5 -33.5t-12 -25t-18.5 -20.5q-23 -20 -51 -27t-57 -7q-8 0 -27 1.5t-40 9.5t-40.5 25t-28.5 48q-5 17 -6 35t-1 50zM118 133q0 -14 2 -26t8 -21 t17.5 -14.5t31.5 -5.5q29 0 44 14.5t15 49.5v442q0 15 -2 29t-8 24t-17.5 16t-31.5 6q-32 0 -45.5 -17t-13.5 -46v-451z" />
<glyph unicode="1" horiz-adv-x="354" d="M67 533v69q7 1 22 4t31.5 13t31.5 30t21 54h61v-703h-89v533h-78z" />
<glyph unicode="2" horiz-adv-x="354" d="M36 472v127q0 30 11 51.5t29 35t42 20t50 6.5q28 0 54.5 -4.5t47.5 -17.5t34 -37.5t13 -65.5v-55q0 -25 -0.5 -43.5t-2 -33t-4 -26.5t-7.5 -24q-8 -22 -27.5 -52.5t-49.5 -75.5q-4 -7 -18.5 -26.5t-30 -47t-29.5 -60t-17 -64.5h190v-79h-282v36q0 23 2.5 48.5t14 59 t33.5 76t61 97.5q22 31 37 51t24.5 38.5t13.5 40t4 56.5v72q0 38 -13.5 53t-39.5 15q-18 0 -29 -5.5t-16.5 -14t-7 -18.5t-1.5 -20v-113h-86z" />
<glyph unicode="3" horiz-adv-x="354" d="M33 109v105h85v-91q0 -26 10 -42t44 -16t44 18t10 48v131q0 30 -8 47t-21 25t-30 9.5t-34 1.5h-33v83h18q28 0 46 5t28.5 14t15 22t4.5 29v103q0 7 -1 15.5t-5.5 15.5t-13.5 11.5t-26 4.5q-29 0 -38.5 -13t-9.5 -39v-63h-85v75q0 17 6 36t21 35t41.5 26t67.5 10 q40 0 65 -9t39 -23.5t19 -33t5 -37.5v-119q0 -28 -5 -45t-14.5 -26.5t-22 -14t-27.5 -8.5q28 -4 44.5 -15t25.5 -27.5t11.5 -38t2.5 -47.5v-122q0 -29 -3 -57t-16.5 -49.5t-42.5 -35t-81 -13.5q-40 0 -66 9.5t-41.5 25.5t-22 37t-6.5 43z" />
<glyph unicode="4" horiz-adv-x="354" d="M8 163v72l149 467h130v-464h50v-75h-50v-163h-84v163h-195zM88 238h114v370z" />
<glyph unicode="5" horiz-adv-x="354" d="M41 113v104h85v-100q0 -21 11 -38t40 -17q20 0 31 6.5t16.5 16t7 21.5t1.5 23v236q0 7 -1 17t-6 19.5t-16 16t-31 6.5q-36 0 -47 -18t-11 -44v-15h-75v355h253v-81h-174v-152q11 9 30 19t53 10q23 0 43.5 -5.5t35.5 -18.5t23.5 -35t8.5 -55v-261q0 -61 -30.5 -96.5 t-102.5 -35.5q-18 0 -43 2.5t-47.5 14t-38.5 36t-16 69.5z" />
<glyph unicode="6" horiz-adv-x="354" d="M41 136v426q0 29 3 56t21 51q23 29 56.5 37t63.5 8q8 0 26 -1.5t38 -9t38 -24t27 -47.5q3 -11 4 -24t1 -36v-71h-82v77q0 6 -1 17t-6 21.5t-16.5 18t-32.5 7.5q-19 0 -30.5 -6.5t-16.5 -17t-6.5 -24t-1.5 -27.5v-177q2 3 8 10t16.5 14t26 12.5t36.5 5.5q33 0 54 -10.5 t33 -27.5t17 -38.5t5 -42.5v-183q0 -17 -3.5 -40.5t-17.5 -45t-42.5 -36.5t-78.5 -15t-78 16t-41.5 38.5t-16.5 47t-3 41.5zM126 131q0 -9 1 -20.5t6 -22.5t17 -18.5t33 -7.5t32 7.5t16 17.5t6 21t1 18v164q0 10 -1 21.5t-6 21.5t-16 17t-32 7t-33 -7.5t-17 -18t-6 -22.5 t-1 -20v-158z" />
<glyph unicode="7" horiz-adv-x="354" d="M42 619v80h265v-76q-34 -73 -56.5 -153t-36 -151t-19.5 -126.5t-8 -80.5q-2 -28 -3 -55.5t-2 -56.5h-102q1 19 3.5 54.5t8 82t14.5 101t23 110.5q26 100 53.5 166.5t45.5 104.5h-186z" />
<glyph unicode="8" horiz-adv-x="354" d="M32 138v91q0 37 4 61.5t13 40t24.5 24t38.5 14.5q-24 9 -38 19t-21 21.5t-9 25.5t-2 31v115q0 26 7 49t23 40.5t42 27.5t64 10q75 0 106.5 -35.5t31.5 -104.5v-67q0 -25 -2 -45.5t-9.5 -37t-22.5 -29t-41 -20.5q29 -6 44.5 -18t23 -27.5t9 -33.5t1.5 -37v-125 q0 -22 -5 -46t-21 -44.5t-44 -33.5t-75 -13q-29 0 -54.5 6.5t-45 23.5t-31 45.5t-11.5 71.5zM117 131q0 -7 1 -19t6.5 -23t17 -19t33.5 -8t34 8t17.5 20.5t6.5 29t1 33.5v113q0 13 -1.5 24.5t-7.5 20.5t-17.5 14t-31.5 5q-22 0 -34 -7t-17.5 -20t-6.5 -29.5t-1 -36.5v-106z M127 463q0 -7 1 -17t5.5 -19t14.5 -15t28 -6q20 0 31.5 7t16.5 17.5t6 22.5t1 23v91q0 13 -1 26t-6 23.5t-15 17t-29 6.5q-20 0 -30.5 -6.5t-15.5 -16.5t-6 -21t-1 -19v-114z" />
<glyph unicode="9" horiz-adv-x="354" d="M32 413v178q0 57 36.5 91t105.5 34q44 0 71.5 -13t42.5 -33.5t20.5 -44.5t5.5 -46v-446q0 -72 -35 -105.5t-110 -33.5q-59 0 -96.5 29.5t-37.5 98.5v86h82v-78q0 -6 1 -17t6 -21t16.5 -17.5t32.5 -7.5q19 0 30 6.5t17 16.5t7.5 22.5t1.5 24.5v181q-2 -3 -8 -9.5 t-16.5 -14t-26.5 -13t-37 -5.5q-37 0 -58.5 12.5t-32.5 32t-14.5 44t-3.5 48.5zM116 418q0 -10 1 -21.5t6 -21.5t16 -17t32 -7q22 0 33.5 7.5t17 18t6.5 22.5t1 20v158q0 10 -1 22.5t-6 23t-17 17.5t-33 7t-32.5 -7t-16.5 -16.5t-6 -20.5t-1 -20v-165z" />
<glyph unicode=":" horiz-adv-x="187" d="M72 0v132h83v-132h-83zM73 323v129h82v-129h-82z" />
<glyph unicode=";" horiz-adv-x="187" d="M69 0v132h82v-121q0 -26 -3 -47.5t-11.5 -39t-24 -32.5t-39.5 -27v23q25 18 30.5 39t5.5 47v26h-40zM70 324v129h82v-129h-82z" />
<glyph unicode="&#x3c;" horiz-adv-x="559" d="M88 270v80l358 195v-86l-277 -146l277 -144v-93z" />
<glyph unicode="=" horiz-adv-x="559" d="M85 180v74h389v-74h-389zM85 351v74h389v-74h-389z" />
<glyph unicode="&#x3e;" horiz-adv-x="559" d="M113 76v85l277 146l-277 144v94l358 -194v-80z" />
<glyph unicode="?" horiz-adv-x="333" d="M53 503v64q0 37 9.5 62.5t26 42t40 24t50.5 7.5q57 0 94.5 -35.5t37.5 -107.5q0 -25 -5 -49t-12 -44t-14.5 -35.5t-11.5 -23.5q-19 -37 -32 -61t-21 -43t-12 -37.5t-4 -45.5h-71q0 33 3 55t10.5 43t19 45.5t29.5 61.5q13 27 24.5 61.5t11.5 80.5q0 9 -1 19.5t-6 20 t-14 16t-26 6.5q-18 0 -27.5 -7.5t-14.5 -19t-6 -25t-1 -25.5v-50h-77zM125 0v129h80v-129h-80z" />
<glyph unicode="@" horiz-adv-x="802" d="M54 236q0 98 33 184.5t90 151.5t133.5 102.5t163.5 37.5q63 0 113 -20.5t85.5 -58t54.5 -91t19 -120.5q0 -68 -18 -131.5t-47.5 -112.5t-68 -78.5t-79.5 -29.5q-67 0 -74 86q-59 -85 -131 -85q-56 0 -87.5 44t-31.5 120q0 57 15.5 108t42 89.5t62 61t74.5 22.5 q37 0 61 -19t43 -64l13 62h63l-48 -240q-7 -34 -9 -52t-2 -33q0 -21 7 -33t21 -12q27 0 51 30t43 74t30 96t11 95q0 55 -15.5 99.5t-44 75.5t-69 48t-90.5 17q-72 0 -136 -34t-112.5 -92.5t-76.5 -136t-28 -164.5q0 -68 21 -123.5t59 -95.5t91 -61.5t118 -21.5q75 0 146 31 q23 10 41 20t36 22.5t38 30t45 42.5l32 -44q-26 -25 -46 -43t-39 -31.5t-39.5 -24.5t-46.5 -22q-43 -18 -82.5 -26.5t-83.5 -8.5q-79 0 -144 26t-111 73t-71 113t-25 147zM281 236q0 -49 19.5 -77.5t51.5 -28.5q26 0 50 18t42 48.5t29 70t11 83.5q0 51 -19 79.5t-53 28.5 q-27 0 -51 -17.5t-41.5 -48t-28 -71t-10.5 -85.5z" />
<glyph unicode="A" horiz-adv-x="333" d="M6 0l100 706h113l109 -706h-91l-18 130h-106l-16 -130h-91zM123 216h84l-45 367z" />
<glyph unicode="B" horiz-adv-x="354" d="M42 0v706h167q37 0 58 -7.5t32 -24.5t14 -43.5t3 -65.5v-88q0 -20 -1.5 -38t-9 -32t-23 -23t-43.5 -11q24 -2 39 -8t23.5 -17.5t11.5 -29t3 -42.5v-128q0 -40 -3.5 -68t-16 -46t-37.5 -26t-69 -8h-148zM132 87h48q17 0 26.5 2t14 8.5t5.5 20t1 36.5v112q0 32 -7.5 49.5 t-38.5 17.5h-49v-246zM132 410h41q16 0 26 3t16 11t8 22.5t2 38.5v70q0 32 -7.5 49.5t-38.5 17.5h-47v-212z" />
<glyph unicode="C" horiz-adv-x="375" d="M40 159v354q0 32 4.5 67t20.5 64.5t47.5 49t85.5 19.5q44 0 72 -13.5t44.5 -37t23 -55t6.5 -67.5v-90h-93v109q0 11 -1.5 23.5t-7.5 23.5t-17.5 18.5t-31.5 7.5q-35 0 -47 -23t-12 -54v-402q0 -49 12.5 -65t44.5 -16q20 0 32 7t18 18.5t7.5 26.5t1.5 31v137h94v-123 q0 -33 -6.5 -64.5t-23.5 -57t-47 -41t-77 -15.5q-52 0 -82 18.5t-45 44.5t-19 55t-4 50z" />
<glyph unicode="D" horiz-adv-x="354" d="M39 0v706h171q33 0 54 -7.5t33 -22t16.5 -35.5t4.5 -49v-470q0 -66 -20.5 -94t-79.5 -28h-179zM132 87h62q16 0 23 7t7 32v445q0 26 -7 37.5t-31 11.5h-54v-533z" />
<glyph unicode="E" horiz-adv-x="292" d="M42 0v706h233v-88h-139v-207h124v-88h-123v-234h138v-89h-233z" />
<glyph unicode="F" horiz-adv-x="292" d="M42 0v706h242v-87h-149v-205h135v-86h-134v-328h-94z" />
<glyph unicode="G" horiz-adv-x="354" d="M40 161v373q0 23 3 54t17 59t42.5 47.5t79.5 19.5q59 0 92.5 -32t33.5 -113v-84h-86v80q0 13 -1 26t-5 23t-12.5 16t-23.5 6q-12 0 -21 -3t-15 -11t-9 -23t-3 -38v-409q0 -40 7 -62.5t37 -22.5q18 0 27.5 6t14.5 15.5t6 20.5t1 21v160h-57v86h149v-376h-56l-8 33 q-5 -7 -12 -14.5t-17 -14t-24.5 -11t-34.5 -4.5q-40 0 -64.5 15.5t-38 40t-18 55t-4.5 61.5z" />
<glyph unicode="H" horiz-adv-x="354" d="M39 0v706h93v-287h86v287h93v-706h-93v328h-86v-328h-93z" />
<glyph unicode="I" horiz-adv-x="167" d="M37 0v706h92v-706h-92z" />
<glyph unicode="J" horiz-adv-x="292" d="M8 4v85q28 -9 54 -11.5t36 -2.5q22 0 34.5 6.5t18.5 17.5t7.5 27t1.5 35v545h93v-504q0 -44 -2.5 -82t-17 -65.5t-44 -43.5t-83.5 -16q-17 0 -39.5 1.5t-58.5 7.5z" />
<glyph unicode="K" horiz-adv-x="354" d="M39 0v706h94v-324l100 324h95l-117 -350l138 -356h-94l-123 326v-326h-93z" />
<glyph unicode="L" horiz-adv-x="292" d="M43 0v706h93v-619h154v-87h-247z" />
<glyph unicode="M" horiz-adv-x="500" d="M42 0v706h133l74 -468l69 468h138v-706h-87q0 64 0.5 124t-0.5 116q0 48 -0.5 96.5t-1 93t-1 80.5t-1.5 58q-3 -24 -8.5 -61.5t-11.5 -82t-13 -93.5t-13 -96q-15 -111 -31 -235h-79l-80 568v-568h-87z" />
<glyph unicode="N" horiz-adv-x="375" d="M41 0v706h100l113 -481q-2 123 -3 224q0 43 -0.5 85.5t-1 78t-1 60.5t-0.5 33h88v-706h-103l-115 518q0 -19 1 -51t1.5 -72t1 -84.5t1.5 -88.5q2 -103 5 -222h-87z" />
<glyph unicode="O" horiz-adv-x="375" d="M39 158v370q0 24 3.5 55.5t18.5 60t45.5 48t84.5 19.5q47 0 75.5 -15.5t43.5 -41.5t20 -59.5t5 -68.5v-368q0 -51 -13 -83.5t-34 -50.5t-49 -24.5t-58 -6.5t-56 7t-45 26t-30 51t-11 81zM132 144q0 -14 1.5 -27.5t7.5 -24t16.5 -16.5t28.5 -6q21 0 32.5 7.5t17 19.5 t6.5 27t1 30v371q0 56 -9.5 80.5t-44.5 24.5q-21 0 -33 -8.5t-17 -21t-6 -27t-1 -26.5v-403z" />
<glyph unicode="P" horiz-adv-x="333" d="M41 0v706h182q29 0 47.5 -6.5t29.5 -19t15 -32.5t4 -47v-150q0 -35 -2 -60t-11 -40.5t-28 -23t-53 -7.5h-93v-320h-91zM133 404h59q19 0 26 6.5t7 24.5v150q0 20 -6.5 27.5t-28.5 7.5h-57v-216z" />
<glyph unicode="Q" horiz-adv-x="375" d="M39 151v384q0 30 6 61.5t23 57t47 41.5t79 16q38 0 65 -12.5t44 -35t25 -53t8 -67.5v-386q0 -78 -29 -114t-84 -46v-14q0 -20 10 -29.5t35 -9.5q11 0 22.5 0.5t22.5 1.5v-86h-40q-47 0 -72.5 10.5t-38 29.5t-16 44t-5.5 54q-58 14 -80 52.5t-22 100.5zM132 144 q0 -14 1.5 -27.5t6.5 -24t16 -16.5t30 -6q21 0 33 7.5t17.5 19.5t6.5 27t1 30v390q0 44 -10.5 65t-44.5 21q-33 0 -45 -19.5t-12 -54.5v-412z" />
<glyph unicode="R" horiz-adv-x="354" d="M41 0v706h153q33 0 57 -4t39 -18.5t22.5 -41.5t7.5 -73v-88q0 -43 -7 -67t-19 -36t-27 -15t-32 -5q25 -1 40.5 -8.5t24.5 -23t12.5 -38.5t3.5 -56v-93q0 -30 0.5 -49.5t2.5 -33.5t5.5 -26.5t9.5 -29.5h-97q-4 25 -7 41.5t-4.5 32t-2 32.5t-0.5 42v64q0 17 -0.5 37t-5 37 t-13.5 28t-26 11h-44v-325h-93zM135 403h47q30 0 38 22.5t8 55.5v70q0 33 -4 51.5t-29 18.5h-60v-218z" />
<glyph unicode="S" horiz-adv-x="333" d="M32 141v117h86v-129q0 -34 10.5 -51t37.5 -17q17 0 26 8.5t13 21.5t5 28.5t1 29.5q0 31 -7.5 56.5t-18.5 48t-25 42.5t-27 40l-38 58q-21 32 -39 74t-18 106q0 28 7.5 54t25 46.5t44.5 33t66 12.5t62 -11t36 -28.5t17 -39t4 -42.5v-125h-85v121q0 7 -1 16t-4.5 17 t-11 13.5t-20.5 5.5q-17 0 -26 -6.5t-13.5 -17t-5.5 -23.5t-1 -25q0 -54 18.5 -90.5t43.5 -73.5l50 -74q32 -48 47 -90.5t15 -83.5q0 -16 -2.5 -45.5t-16 -58.5t-41.5 -50.5t-80 -21.5q-43 0 -67 14t-36 28q-22 26 -26.5 53.5t-4.5 58.5z" />
<glyph unicode="T" horiz-adv-x="333" d="M10 623v83h311v-83h-108v-623h-95v623h-108z" />
<glyph unicode="U" horiz-adv-x="375" d="M40 155v551h91v-558q0 -48 14 -65t42 -17q20 0 31.5 7.5t17 20.5t7 31.5t1.5 40.5v540h92v-535q0 -100 -40 -141t-112 -41q-41 0 -68.5 12.5t-44.5 35t-24 52.5t-7 66z" />
<glyph unicode="V" horiz-adv-x="333" d="M6 706h93l72 -566l69 566h92l-108 -706h-110z" />
<glyph unicode="W" horiz-adv-x="479" d="M5 706h92l43 -546l52 546h85l59 -546l44 546h92l-82 -706h-107l-48 472l-44 -472h-107z" />
<glyph unicode="X" horiz-adv-x="333" d="M5 0l108 364l-107 342h93l65 -215l61 215h93l-104 -341l114 -365h-94l-70 246l-67 -246h-92z" />
<glyph unicode="Y" horiz-adv-x="333" d="M4 706h95l65 -282l71 282h94l-117 -410v-296h-101v295z" />
<glyph unicode="Z" horiz-adv-x="292" d="M15 0v62l167 562h-127v82h225v-61l-166 -560h151v-85h-250z" />
<glyph unicode="[" horiz-adv-x="271" d="M59 -196v929h170v-50h-86v-833h84v-46h-168z" />
<glyph unicode="\" horiz-adv-x="250" d="M9 706h78l152 -706h-77z" />
<glyph unicode="]" horiz-adv-x="271" d="M44 -147h86v833h-85v47h168v-929h-169v49z" />
<glyph unicode="^" horiz-adv-x="559" d="M61 358l177 348h83l176 -348h-91l-127 268l-125 -268h-93z" />
<glyph unicode="_" horiz-adv-x="500" d="M-10 -143h520v-66h-520v66z" />
<glyph unicode="`" horiz-adv-x="208" d="M17 698h102l72 -121h-48z" />
<glyph unicode="a" d="M34 84v90q0 20 1 35t6 27t15 22t27 21l77 48q25 15 32 31v80q0 5 -0.5 11.5t-4 13.5t-10.5 11.5t-20 4.5q-17 0 -26 -8t-9 -31v-76h-82v66q0 23 4.5 44t17.5 36.5t35.5 25t58.5 9.5q23 0 44 -5t37 -17t25.5 -33.5t9.5 -54.5v-354q0 -14 2 -37t13 -44h-86q-5 11 -7 17.5 t-7 25.5q-15 -23 -32 -36t-46 -13q-41 0 -58 22.5t-17 67.5zM114 118q0 -29 6 -44.5t26 -15.5q15 0 24.5 8.5t14 21.5t6 27t1.5 25v125l-50 -35q-14 -10 -21 -22t-7 -32v-58z" />
<glyph unicode="b" d="M39 0v706h80v-208q13 21 31 33t46 12q14 0 28 -4t26 -14t19.5 -28t7.5 -45v-340q0 -34 -8 -57t-21.5 -37t-31 -20.5t-37.5 -6.5q-19 0 -32 5t-22 13t-14.5 17.5t-8.5 18.5q-12 -17 -18 -45h-45zM119 119q0 -28 7 -41.5t31 -13.5q17 0 28 11.5t11 34.5v318q0 17 -6 30.5 t-29 13.5t-32.5 -16t-9.5 -36v-301z" />
<glyph unicode="c" horiz-adv-x="305" d="M36 105v318q0 34 9.5 57t25.5 37.5t38.5 21t47.5 6.5q63 0 91.5 -32.5t28.5 -95.5v-74h-81v91q0 18 -7 30.5t-33 12.5q-28 0 -34.5 -15.5t-6.5 -37.5v-325q0 -17 8 -29.5t31 -12.5q26 0 34 14.5t8 41.5v100h80v-98q0 -55 -27 -90t-95 -35q-67 0 -92.5 31t-25.5 84z" />
<glyph unicode="d" d="M40 88v364q0 13 3 28.5t12 29.5t25 23.5t41 9.5t41.5 -11.5t32.5 -28.5v203h81v-706h-81v37q-3 -4 -8 -11.5t-14 -15t-22 -13t-30 -5.5q-26 0 -42 9t-24.5 23t-11.5 31t-3 33zM119 112q0 -28 8 -38t28 -10q21 0 30.5 15.5t9.5 38.5v308q0 17 -8 30.5t-29 13.5 q-25 0 -32 -16t-7 -36v-306z" />
<glyph unicode="e" d="M39 101v319q0 54 28.5 89t91.5 35q54 0 86 -28.5t32 -92.5v-173h-159v-151q0 -6 1 -13.5t4.5 -14t11 -11t20.5 -4.5q15 0 23.5 5.5t12.5 13.5t4.5 16.5t0.5 13.5v94h81v-74q0 -66 -29 -100t-93 -34q-23 0 -44 5t-37 18t-25.5 34t-9.5 53zM118 316h78v113q0 10 -1 19 t-4.5 15.5t-11 10.5t-20.5 4q-15 0 -23 -5t-12 -13.5t-5 -18.5t-1 -21v-104z" />
<glyph unicode="f" horiz-adv-x="187" d="M9 468v68h45v97q0 26 6.5 41t17 22t24 8.5t27.5 1.5q26 0 51 -3v-68h-14q-14 0 -22 -5.5t-8 -25.5v-68h46v-68h-47v-468h-82v468h-44z" />
<glyph unicode="g" d="M36 86v360q0 14 3 31t12 32t25 25.5t42 10.5q51 0 77 -47v38h79v-560q0 -32 -9.5 -54.5t-26 -36.5t-38.5 -21t-47 -7q-10 0 -29 2.5t-38.5 13t-34 31t-14.5 56.5v6h80q0 -20 8 -31t31 -11q25 0 31.5 14.5t6.5 28.5v70q-21 -30 -41.5 -36.5t-34.5 -6.5q-30 0 -46.5 11 t-24.5 26t-9.5 30.5t-1.5 24.5zM115 124q0 -10 0.5 -20.5t4 -18.5t11.5 -13t22 -5t22 5.5t12.5 14t5.5 19.5t1 21v277q0 10 -1 22t-4.5 22t-12 17t-23.5 7q-14 0 -21.5 -5.5t-11.5 -15t-4.5 -21.5t-0.5 -26v-280z" />
<glyph unicode="h" d="M40 0v706h79v-206l10 12.5t15 14.5t22 12t30 5q29 0 45.5 -12t24.5 -29t10 -37t2 -37v-429h-81v422q0 7 -0.5 15t-4.5 15.5t-11 12.5t-21 5t-22.5 -6t-12.5 -14t-5 -17.5t-1 -17.5v-415h-79z" />
<glyph unicode="i" horiz-adv-x="167" d="M43 0v536h80v-536h-80zM44 597v106h80v-106h-80z" />
<glyph unicode="j" horiz-adv-x="167" d="M-18 -69q7 -1 14 -1.5t14 -0.5q13 0 20 4t10.5 9.5t4.5 12t1 11.5v570h81v-546q0 -31 -4 -55t-16.5 -40.5t-35 -25.5t-59.5 -9h-15t-15 1v70zM46 596v107h81v-107h-81z" />
<glyph unicode="k" horiz-adv-x="292" d="M41 0v706h81v-384l80 214h87l-93 -205l90 -331h-85l-63 246l-16 -42v-204h-81z" />
<glyph unicode="l" horiz-adv-x="167" d="M42 0v706h82v-706h-82z" />
<glyph unicode="m" horiz-adv-x="479" d="M42 0v536h79v-37q14 22 31 34t45 12q19 0 32.5 -5.5t22 -14t13.5 -17.5t8 -16q4 7 10 16t16 17t24 13.5t35 5.5q15 0 30 -5t26 -16t18 -29.5t7 -44.5v-449h-82v428q0 20 -7 31.5t-27 11.5q-29 0 -36 -16t-7 -37v-418h-80v420q0 10 -1 19t-4.5 16.5t-11 12t-20.5 4.5 t-21.5 -5t-12.5 -13.5t-5.5 -18.5t-1.5 -19v-416h-80z" />
<glyph unicode="n" d="M39 0v536h80v-35q3 5 9.5 12t16 14.5t22.5 12.5t30 5q24 0 39.5 -8t25 -22t13 -32.5t3.5 -39.5v-443h-82v420q0 21 -6 36.5t-29 15.5q-14 0 -22 -5.5t-12.5 -14t-6 -19.5t-1.5 -22v-411h-80z" />
<glyph unicode="o" d="M38 144v267q0 23 5 47t18.5 43t37.5 31t60 12q61 0 90 -28t29 -94v-304q0 -24 -5 -47t-18 -41t-36.5 -28.5t-61.5 -10.5q-41 0 -64.5 12t-35.5 33t-15.5 49t-3.5 59zM118 104q0 -24 7.5 -35.5t30.5 -11.5q29 0 36 16t7 38v316q0 20 -6 35.5t-33 15.5q-25 0 -33.5 -14.5 t-8.5 -43.5v-316z" />
<glyph unicode="p" d="M37 -145v681h81v-37q4 6 10 13.5t15 14.5t22 12t31 5q26 0 41.5 -10t24 -24.5t11 -31t2.5 -30.5v-345q0 -18 -3 -37t-12 -35t-25 -26.5t-42 -10.5t-44 12t-31 33v-184h-81zM118 114q0 -5 0.5 -13t4.5 -16t11.5 -13.5t22.5 -5.5q13 0 20.5 5t11.5 13t5 17t1 16v303 q0 10 -1 19.5t-4.5 17t-11 12t-19.5 4.5q-15 0 -23.5 -6.5t-12.5 -16.5t-4.5 -21.5t-0.5 -20.5v-294z" />
<glyph unicode="q" d="M36 83v345q0 17 1.5 37t9.5 38t24.5 30t46.5 12q19 0 33 -6t23.5 -14.5t16 -17.5t9.5 -15q16 23 22 44h51v-681h-81v184q-4 -5 -10.5 -12.5t-16 -14.5t-23 -12t-30.5 -5q-28 0 -43.5 10.5t-22.5 24.5t-8.5 29t-1.5 24zM115 112q0 -7 0.5 -15t3.5 -15t10 -11.5t20 -4.5 q15 0 24 6.5t13.5 17t5.5 22.5t1 24v266q0 14 -1 26t-4.5 22t-11.5 15.5t-23 5.5q-14 0 -21.5 -5t-11.5 -12t-4.5 -15t-0.5 -14v-313z" />
<glyph unicode="r" horiz-adv-x="229" d="M31 0v536h82v-62q13 28 30 48t52 20q6 0 11.5 -0.5t10.5 -1.5v-93q-6 5 -17.5 10.5t-30.5 5.5q-20 0 -31.5 -10t-17.5 -25t-7.5 -33.5t-1.5 -35.5v-359h-80z" />
<glyph unicode="s" horiz-adv-x="292" d="M24 146v51h76v-63q0 -35 8 -54t39 -19q24 0 33 17.5t9 52.5q0 31 -11.5 51t-32.5 41l-43 43q-19 19 -32.5 36t-21.5 34t-12 35.5t-4 40.5q0 28 6.5 52t21 41.5t37 27.5t54.5 10q6 0 17.5 -1t25.5 -5.5t28 -14.5t24 -28q6 -10 9 -21.5t5 -25.5t2.5 -31.5t0.5 -40.5h-74 q0 42 -6 68t-36 26q-26 0 -33 -15t-7 -35q0 -31 11 -48.5t32 -37.5l37 -36q25 -24 41 -44t25 -39t12 -39t3 -44q0 -15 -4 -39.5t-17.5 -47t-37.5 -39t-65 -16.5q-9 0 -31.5 3.5t-45.5 20.5q-16 12 -24.5 27.5t-12.5 33t-5 36t-1 36.5z" />
<glyph unicode="t" horiz-adv-x="187" d="M7 468v68h50v115h80v-115h45v-68h-46v-374q0 -21 9.5 -27.5t25.5 -6.5h17v-28q0 -11 -0.5 -20.5t-0.5 -12.5q-8 -2 -18 -3.5t-28 -1.5q-26 0 -43 4.5t-26.5 14.5t-13 26t-3.5 39v390h-48z" />
<glyph unicode="u" d="M36 96v440h83v-438q0 -15 9 -24.5t28 -9.5q14 0 22 6t12 15t5 20t1 21v410h80v-536h-80v34q-3 -4 -9.5 -11.5t-16 -15t-22.5 -12.5t-31 -5q-25 0 -41 9t-25 24t-12 34t-3 39z" />
<glyph unicode="v" horiz-adv-x="271" d="M7 536h82l47 -418l47 418h82l-83 -536h-96z" />
<glyph unicode="w" horiz-adv-x="396" d="M8 536h77l29 -402l53 402h58l49 -402l32 402h79l-67 -536h-89l-34 310l-35 -310h-89z" />
<glyph unicode="x" horiz-adv-x="292" d="M4 0l97 288l-83 248h80l49 -190l47 190h80l-83 -246l92 -290h-84l-53 213l-64 -213h-78z" />
<glyph unicode="y" horiz-adv-x="271" d="M4 536h82l47 -425l49 425h83l-101 -593q-2 -13 -6 -28t-14 -28t-29 -21.5t-52 -8.5q-10 0 -20 0.5t-21 1.5v77q10 0 21 0.5t20.5 5t16 14.5t6.5 28v11.5t-2 14.5z" />
<glyph unicode="z" horiz-adv-x="271" d="M11 0v76l163 385h-129v75h216v-77l-163 -383h159v-76h-246z" />
<glyph unicode="{" horiz-adv-x="354" d="M71 231v55q26 6 40.5 18t21.5 31t8.5 46t1.5 63v103q0 39 6 72.5t24.5 57.5t52 37.5t88.5 13.5v-53q-29 -3 -47 -12t-27.5 -25.5t-12.5 -41.5t-3 -61v-81q0 -49 -3 -82.5t-12 -56t-25 -35t-42 -19.5v-4q26 -7 42 -20.5t25 -36t12 -56t3 -80.5v-78q0 -28 1.5 -53.5t10 -45 t26 -31.5t49.5 -13v-53q-54 0 -87 13.5t-51 38.5t-24 59t-6 76v97q0 50 -4 78.5t-13 44.5t-22.5 22.5t-32.5 11.5z" />
<glyph unicode="|" horiz-adv-x="229" d="M74 -210v943h81v-943h-81z" />
<glyph unicode="}" horiz-adv-x="354" d="M40 -157q29 3 47 12t27.5 25.5t12.5 41.5t3 61v81q0 49 3 82.5t12 56t25 35t42 19.5v4q-26 7 -42 20.5t-25 36t-12 56t-3 80.5v78q0 28 -1.5 53.5t-9.5 45t-26 31.5t-50 13v53q54 0 87 -13.5t51 -38.5t24 -59t6 -76v-97q0 -49 4 -78t13 -45t22.5 -22.5t32.5 -11.5v-55 q-26 -6 -40.5 -18t-21.5 -31t-8.5 -46t-1.5 -63v-103q0 -39 -6 -72.5t-24.5 -57.5t-52 -37.5t-88.5 -13.5v53z" />
<glyph unicode="~" horiz-adv-x="565" d="M63 300q18 20 32 34t27.5 22t28.5 11.5t34 3.5t35.5 -4.5t42.5 -15.5l54 -23q25 -11 36.5 -14.5t23.5 -3.5q21 0 40.5 11.5t45.5 40.5l38 -62q-33 -39 -63 -55t-62 -16q-18 0 -37.5 5.5t-52.5 20.5l-26 12q-26 12 -43 17t-33 5q-21 0 -37.5 -10t-37.5 -34l-7 -8z" />
<glyph unicode="&#xa1;" horiz-adv-x="187" d="M39 0v272l18 206h44l18 -230v-248h-80zM39 570v129h80v-129h-80z" />
<glyph unicode="&#xa2;" d="M40 102v326q0 11 2 28t11 35t29 33t56 20v57h38v-56q38 -4 59 -18.5t31.5 -32.5t12.5 -36.5t2 -31.5v-83h-81v91q0 21 -8.5 32t-31.5 11q-28 0 -34.5 -16t-6.5 -37v-325q0 -5 1 -12t4.5 -14t11.5 -11.5t23 -4.5t23 5t12 13t5 18t1 20v100h80v-101q0 -10 -2 -29t-12 -38.5 t-31 -35t-59 -18.5v-64h-38v64q-36 4 -56 17t-29 29.5t-11 34t-2 30.5z" />
<glyph unicode="&#xa3;" horiz-adv-x="479" d="M19 66q0 34 26.5 57t76.5 23q23 0 43.5 -5t26.5 -7q4 14 5.5 23.5t1.5 25.5q0 33 -10.5 62.5t-21.5 59.5h-105v67h80q-3 8 -9.5 25t-13 40t-11 50.5t-4.5 56.5t7.5 59t25.5 54.5t48 40.5t76 16q36 0 69 -14t52 -46q17 -27 20.5 -60.5t3.5 -68.5v-36h-86v42q0 21 -1.5 40 t-7.5 33.5t-17.5 23t-31.5 8.5t-32.5 -8t-19.5 -20.5t-9.5 -28t-2.5 -30.5q0 -25 3 -47t9 -43t14 -42t17 -44h105v-67h-78q7 -32 8.5 -48t1.5 -33q0 -47 -9.5 -73t-17.5 -46q7 -4 17 -10t21 -11.5t22 -9.5t19 -4q25 0 31 22t6 76v31h82v-39q0 -41 -2.5 -68t-13.5 -47 q-8 -14 -28 -30t-59 -16t-69.5 18.5t-54.5 38.5q-5 -6 -14.5 -16.5t-24 -21t-34 -18t-45.5 -7.5q-16 0 -31.5 4t-27.5 13t-19 22.5t-7 32.5zM69 65q0 -6 7 -15t24 -9q11 0 22.5 5t21 11.5t16 13.5t7.5 11q-4 2 -20.5 7t-34.5 5q-23 0 -33 -9t-10 -20z" />
<glyph unicode="&#xa4;" horiz-adv-x="627" d="M41 109l72 74q-28 44 -38.5 78.5t-10.5 78.5t10.5 78.5t38.5 76.5l-70 74l52 55l70 -73q39 28 73 39.5t76 11.5t76.5 -12t70.5 -39l72 74l53 -56l-71 -75q26 -43 37 -77.5t11 -75.5q0 -44 -11.5 -82t-37.5 -76l71 -76l-53 -55l-72 76q-38 -28 -72.5 -40t-76.5 -12 q-21 0 -38.5 2.5t-34.5 8.5t-34.5 16t-38.5 25l-72 -74zM152 340q0 -39 12.5 -72t34.5 -57t52 -38t65 -14q33 0 62 14t50.5 38t33.5 56.5t12 71.5t-12 72t-33.5 57t-50.5 38t-64 14q-34 0 -64 -14t-51.5 -38t-34 -57t-12.5 -71z" />
<glyph unicode="&#xa5;" horiz-adv-x="333" d="M4 706h95l65 -287l71 287h94l-87 -303h70v-63h-87l-13 -46v-8h100v-64h-100v-222h-101v222h-97v64h97v8l-12 46h-85v63h68z" />
<glyph unicode="&#xa6;" horiz-adv-x="229" d="M74 198h81v-408h-81v408zM74 325v408h81v-408h-81z" />
<glyph unicode="&#xa7;" horiz-adv-x="396" d="M32 101h85v-29q0 -37 17 -59.5t55 -22.5q31 0 51.5 18t20.5 50q0 30 -16 49.5t-39.5 33.5t-49.5 25.5t-46 25.5q-35 25 -55.5 58t-20.5 77q0 46 20 76t56 56q-31 29 -48 58t-17 72q0 33 12 59.5t33 45.5t49 29.5t59 10.5q69 0 107 -39t38 -108v-33h-77v36q0 32 -15.5 55 t-50.5 23q-29 0 -48 -17t-19 -46q0 -33 17.5 -54.5t44 -37.5t57.5 -31t57.5 -34.5t44 -48t17.5 -71.5q0 -47 -21.5 -80t-52.5 -64q26 -26 39.5 -50.5t13.5 -62.5q0 -36 -13 -63.5t-35.5 -47t-52.5 -29.5t-63 -10q-47 0 -87 20.5t-57 67.5q-8 20 -9 45t-1 47zM120 335 q0 -22 10.5 -38.5t27 -29t35.5 -22t35 -18.5q23 15 40.5 35.5t17.5 50.5q0 22 -10 38.5t-25.5 29t-34 21.5t-35.5 17q-22 -14 -41.5 -33.5t-19.5 -50.5z" />
<glyph unicode="&#xa8;" horiz-adv-x="208" d="M1 589v100h73v-100h-73zM130 589v100h77v-100h-77z" />
<glyph unicode="&#xa9;" horiz-adv-x="833" d="M61 353q0 74 27.5 139t75.5 113t113 76t140 28t140 -27.5t113 -75.5t75.5 -113t27.5 -140t-27.5 -140t-75.5 -113t-113.5 -75.5t-140.5 -27.5q-74 0 -138.5 28t-112.5 76t-76 113t-28 139zM101 352q0 -66 24.5 -124t67.5 -101t100 -68t123 -25t124 25t100.5 68t67.5 101 t25 125t-24.5 125.5t-67 101.5t-100.5 67.5t-124 24.5t-123.5 -25t-100 -68.5t-67.5 -102t-25 -124.5zM312 224v262q0 53 29 82.5t80 29.5q106 0 106 -121v-57h-72v73q0 43 -36 43q-21 0 -29 -11.5t-8 -41.5v-270q0 -42 36 -42q21 0 29 12t8 44v63h71v-63q0 -57 -27.5 -87.5 t-80.5 -30.5q-54 0 -80 27.5t-26 87.5z" />
<glyph unicode="&#xaa;" horiz-adv-x="187" d="M27 464v47q0 24 4.5 36.5t24.5 24.5q25 16 38 24t16 16v42q0 7 -1.5 12t-12.5 5q-10 0 -13 -4t-3 -14v-42h-49v39q0 21 6.5 33t16.5 18.5t20.5 8.5t17.5 2q25 0 38.5 -7.5t20 -18.5t7.5 -23t1 -20v-181q0 -8 1 -18.5t6 -24.5h-49l-7 18q-11 -13 -20 -17t-19 -4 q-16 0 -24.5 5.5t-13 13.5t-5.5 16t-1 13zM75 479q0 -8 1.5 -15.5t12.5 -7.5q12 0 16.5 12.5t4.5 26.5v60l-20 -14q-10 -7 -12.5 -13.5t-2.5 -23.5v-25z" />
<glyph unicode="&#xab;" horiz-adv-x="333" d="M26 273v105l132 119v-100l-79 -72l80 -71v-100zM175 273v108l131 116v-100l-78 -71l79 -71v-98z" />
<glyph unicode="&#xac;" horiz-adv-x="559" d="M60 259v75h415v-260h-91v185h-324z" />
<glyph unicode="&#xad;" horiz-adv-x="229" d="M26 249v84h177v-84h-177z" />
<glyph unicode="&#xae;" horiz-adv-x="833" d="M61 353q0 74 27.5 139t75.5 113t113 76t140 28t140 -27.5t113 -75.5t75.5 -113t27.5 -140t-27.5 -140t-75.5 -113t-113.5 -75.5t-140.5 -27.5q-74 0 -138.5 28t-112.5 76t-76 113t-28 139zM101 352q0 -66 24.5 -124t67.5 -101t100 -68t123 -25t124 25t100.5 68t67.5 101 t25 125t-24.5 125.5t-67 101.5t-100.5 67.5t-124 24.5t-123.5 -25t-100 -68.5t-67.5 -102t-25 -124.5zM312 120v470h100q32 0 52 -4t32 -15t16.5 -29.5t4.5 -47.5v-56q0 -39 -13 -56t-47 -23q18 -4 29.5 -8.5t17.5 -14.5t8.5 -27t2.5 -47v-50q0 -18 0.5 -30t2 -22t4 -19 t6.5 -21h-72l-5 20t-3 16.5t-1.5 20t-0.5 30.5v62q0 35 -12 45t-39 10h-15v-204h-68zM381 391h13q17 0 28 2t17 8t8 16.5t2 27.5v37q0 26 -10.5 34t-43.5 8h-14v-133z" />
<glyph unicode="&#xaf;" horiz-adv-x="209" d="M2 592v63h205v-63h-205z" />
<glyph unicode="&#xb0;" horiz-adv-x="354" d="M16 594q0 33 12.5 62.5t34.5 51.5t51.5 34.5t62.5 12.5q34 0 63.5 -12.5t51 -34t34 -51t12.5 -64.5q0 -33 -12.5 -62.5t-34 -51t-51 -34.5t-63.5 -13t-63 13t-51 35t-34.5 51.5t-12.5 62.5zM98 596q0 -32 23.5 -55.5t55.5 -23.5q33 0 56 23t23 57q0 32 -23 55t-56 23 t-56 -23t-23 -56z" />
<glyph unicode="&#xb1;" horiz-adv-x="559" d="M84 0v76h392v-76h-392zM84 298v75h155v168h84v-168h153v-75h-153v-168h-84v168h-155z" />
<glyph unicode="&#xb2;" horiz-adv-x="229" d="M24 264q0 37 4.5 63.5t14.5 50t26 47.5t40 57q11 15 18 25.5t11 21t5.5 23.5t1.5 32q0 25 -1 40t-5 23.5t-10 11.5t-17 3q-22 0 -26.5 -13.5t-4.5 -30.5v-62h-57v56q0 17 2 34t11 31t26.5 23t47.5 9q22 0 42 -5.5t31 -17.5q6 -7 10 -15.5t6 -20.5t2.5 -28.5t0.5 -39.5 q0 -25 -3.5 -44t-11 -35.5t-19 -34t-28.5 -41.5q-47 -67 -53 -111h117v-52h-181z" />
<glyph unicode="&#xb3;" horiz-adv-x="229" d="M23 341v57h57v-56q0 -16 6.5 -26t26.5 -10q19 0 25.5 10t6.5 32v76q0 18 -4 29t-11.5 16t-19 6.5t-26.5 1.5h-18v55h15q20 0 31 4t16.5 10.5t7 16t1.5 19.5v54q0 14 -5.5 21.5t-21.5 7.5q-17 0 -23 -9.5t-6 -24.5v-37h-57v32q0 12 2 27t10.5 27.5t25 21t46.5 8.5 q50 0 68 -20.5t18 -49.5v-57q0 -33 -10.5 -49.5t-33.5 -21.5q17 -5 27.5 -12.5t16 -17.5t7 -22t1.5 -26v-91q0 -13 -2 -28t-11 -28t-27.5 -21.5t-50.5 -8.5q-29 0 -46.5 8t-26.5 20t-12 27t-3 29z" />
<glyph unicode="&#xb4;" horiz-adv-x="208" d="M18 577l72 121h100l-125 -121h-47z" />
<glyph unicode="&#xb5;" d="M34 -145v681h83v-420q0 -29 8 -40.5t28 -11.5q22 0 31.5 14.5t9.5 46.5v411h80v-460q0 -27 3 -44t11 -32h-77q-5 11 -8 19t-5 20q-6 -24 -17 -34t-30 -10q-11 0 -18 2.5t-16 10.5v-153h-83z" />
<glyph unicode="&#xb6;" horiz-adv-x="600" d="M86 506q0 46 15 85t44 65q15 14 31.5 23.5t37 15.5t47 8.5t62.5 2.5h147v-63h-34v-810h-58v810h-92v-810h-58v486q-142 36 -142 187z" />
<glyph unicode="&#xb7;" horiz-adv-x="146" d="M30 259v132h82v-132h-82z" />
<glyph unicode="&#xb8;" horiz-adv-x="208" d="M16 -140h19q12 0 25.5 1t24.5 4.5t18 10t7 16.5q0 19 -21.5 23.5t-52.5 6.5l72 121h47l-44 -80q15 -1 29.5 -3.5t26 -9t18.5 -17t7 -26.5q0 -24 -14 -39t-36 -23.5t-48.5 -12t-51.5 -3.5h-26v31z" />
<glyph unicode="&#xb9;" horiz-adv-x="229" d="M48 594v46q9 2 19 5t19.5 10t17.5 19t13 32h39v-442h-59v330h-49z" />
<glyph unicode="&#xba;" horiz-adv-x="187" d="M28 497v143q0 7 1 19.5t7.5 24.5t20 20.5t37.5 8.5t37.5 -7.5t20 -18t8 -22.5t1.5 -21v-155q0 -8 -1 -20.5t-7 -24t-19.5 -20t-37.5 -8.5q-22 0 -35.5 7t-20.5 18t-9.5 26t-2.5 30zM76 485q0 -8 2 -17.5t16 -9.5t16 9.5t2 19.5v156q0 8 -2 18t-15 10q-14 0 -16.5 -9.5 t-2.5 -18.5v-158z" />
<glyph unicode="&#xbb;" horiz-adv-x="333" d="M27 396v98l133 -116v-108l-132 -116v100l79 71zM175 397v100l133 -118v-106l-131 -119v100l78 72z" />
<glyph unicode="&#xbc;" horiz-adv-x="583" d="M48 594v46q9 2 19 5t19.5 10t17.5 19t13 32h39v-442h-59v330h-49zM114 -5l309 736l49 -20l-309 -737zM364 100v50l95 290h83v-290h31v-50h-31v-100h-53v100h-125zM417 150h72v242z" />
<glyph unicode="&#xbd;" horiz-adv-x="583" d="M48 594v46q9 2 19 5t19.5 10t17.5 19t13 32h39v-442h-59v330h-49zM100 -5l308 736l49 -20l-309 -737zM378 0q0 37 4.5 63.5t14.5 50t26 47.5t40 57q11 15 18 25.5t11 21t5.5 23.5t1.5 32q0 25 -1 40t-5 23.5t-10 11.5t-17 3q-22 0 -26.5 -13.5t-4.5 -30.5v-62h-57v56 q0 17 2 34t11 31t26.5 23t47.5 9q22 0 42 -5.5t31 -17.5q6 -7 10 -15.5t6 -20.5t2.5 -28.5t0.5 -39.5q0 -25 -3.5 -44t-11 -35.5t-19 -34t-28.5 -41.5q-47 -67 -53 -111h117v-52h-181z" />
<glyph unicode="&#xbe;" horiz-adv-x="583" d="M23 341v57h57v-56q0 -16 6.5 -26t26.5 -10q19 0 25.5 10t6.5 32v76q0 18 -4 29t-11.5 16t-19 6.5t-26.5 1.5h-18v55h15q20 0 31 4t16.5 10.5t7 16t1.5 19.5v54q0 14 -5.5 21.5t-21.5 7.5q-17 0 -23 -9.5t-6 -24.5v-37h-57v32q0 12 2 27t10.5 27.5t25 21t46.5 8.5 q50 0 68 -20.5t18 -49.5v-57q0 -33 -10.5 -49.5t-33.5 -21.5q17 -5 27.5 -12.5t16 -17.5t7 -22t1.5 -26v-91q0 -13 -2 -28t-11 -28t-27.5 -21.5t-50.5 -8.5q-29 0 -46.5 8t-26.5 20t-12 27t-3 29zM135 -5l309 736l49 -20l-309 -737zM364 100v50l95 290h83v-290h31v-50h-31 v-100h-53v100h-125zM417 150h72v242z" />
<glyph unicode="&#xbf;" horiz-adv-x="333" d="M23 139q0 25 5 49t12 44t14.5 35.5t11.5 23.5q19 38 32 61.5t21 42.5t12 37.5t4 45.5h71q0 -33 -3 -55t-10.5 -43t-19 -45.5t-29.5 -61.5q-13 -27 -24.5 -61.5t-11.5 -80.5q0 -9 1 -19.5t6 -20t14.5 -16t25.5 -6.5q18 0 27.5 7.5t14.5 19t6 25t1 25.5v50h77v-64 q0 -73 -35.5 -104.5t-90.5 -31.5q-57 0 -94.5 35.5t-37.5 107.5zM129 570v129h80v-129h-80z" />
<glyph unicode="&#xc0;" horiz-adv-x="333" d="M6 0l100 706h113l109 -706h-91l-18 130h-106l-16 -130h-91zM22 895h102l73 -121h-49zM123 216h84l-45 367z" />
<glyph unicode="&#xc1;" horiz-adv-x="333" d="M6 0l100 706h113l109 -706h-91l-18 130h-106l-16 -130h-91zM123 216h84l-45 367zM128 775l71 122h102l-126 -122h-47z" />
<glyph unicode="&#xc2;" horiz-adv-x="333" d="M6 0l100 706h113l109 -706h-91l-18 130h-106l-16 -130h-91zM49 774l90 121h56l90 -120h-57l-61 61l-64 -62h-54zM123 216h84l-45 367z" />
<glyph unicode="&#xc3;" horiz-adv-x="333" d="M6 0l100 706h113l109 -706h-91l-18 130h-106l-16 -130h-91zM52 794q0 41 19.5 65.5t47.5 24.5q16 0 30.5 -4.5t27.5 -10.5t25 -10.5t23 -4.5q16 0 19 9.5t4 19.5h34q0 -13 -3 -28.5t-11 -29t-20.5 -22.5t-32.5 -9q-13 0 -27 4.5t-28 10.5t-26.5 10.5t-23.5 4.5 q-13 0 -18 -9.5t-6 -20.5h-34zM123 216h84l-45 367z" />
<glyph unicode="&#xc4;" horiz-adv-x="333" d="M6 0l100 706h113l109 -706h-91l-18 130h-106l-16 -130h-91zM64 777v100h72v-100h-72zM123 216h84l-45 367zM193 777v101h75v-101h-75z" />
<glyph unicode="&#xc5;" horiz-adv-x="333" d="M6 0l100 706h113l109 -706h-91l-18 130h-106l-16 -130h-91zM92 836q0 32 22 53.5t53 21.5q32 0 53.5 -22.5t21.5 -53.5t-22.5 -52.5t-52.5 -21.5q-32 0 -53.5 21.5t-21.5 53.5zM123 216h84l-45 367zM126 836q0 -18 12 -29.5t29 -11.5q18 0 29.5 12t11.5 30q0 17 -12 28.5 t-29 11.5q-18 0 -29.5 -12t-11.5 -29z" />
<glyph unicode="&#xc6;" horiz-adv-x="479" d="M-10 0l147 706h311v-87h-142v-215h123v-78h-123v-238h156v-88h-246v325h-72l-62 -325h-92zM159 403h57v245h-12z" />
<glyph unicode="&#xc7;" horiz-adv-x="375" d="M40 159v354q0 32 4.5 67t20.5 64.5t47.5 49t85.5 19.5q44 0 72 -13.5t44.5 -37t23 -55t6.5 -67.5v-90h-93v109q0 11 -1.5 23.5t-7.5 23.5t-17.5 18.5t-31.5 7.5q-35 0 -47 -23t-12 -54v-402q0 -49 12.5 -65t44.5 -16q20 0 32 7t18 18.5t7.5 26.5t1.5 31v137h94v-123 q0 -30 -5.5 -59.5t-19.5 -54t-39 -41.5t-64 -22l-16 -29q15 -1 29.5 -3.5t26 -9t18.5 -17t7 -26.5q0 -24 -14 -39t-36 -23.5t-48.5 -12t-51.5 -3.5h-26v31h19q12 0 25.5 1t24.5 4.5t18 10t7 16.5q0 9 -5.5 14.5t-14 8.5t-19 4t-19.5 2l-16 1l42 70q-45 5 -70 24t-38 44.5 t-16 52t-3 46.5z" />
<glyph unicode="&#xc8;" horiz-adv-x="292" d="M7 895h102l73 -121h-49zM42 0v706h233v-88h-139v-207h124v-88h-123v-234h138v-89h-233z" />
<glyph unicode="&#xc9;" horiz-adv-x="292" d="M42 0v706h233v-88h-139v-207h124v-88h-123v-234h138v-89h-233zM118 775l71 122h102l-126 -122h-47z" />
<glyph unicode="&#xca;" horiz-adv-x="292" d="M38 774l90 121h56l90 -120h-57l-61 61l-64 -62h-54zM42 0v706h233v-88h-139v-207h124v-88h-123v-234h138v-89h-233z" />
<glyph unicode="&#xcb;" horiz-adv-x="292" d="M42 0v706h233v-88h-139v-207h124v-88h-123v-234h138v-89h-233zM49 777v100h72v-100h-72zM178 777v101h75v-101h-75z" />
<glyph unicode="&#xcc;" horiz-adv-x="167" d="M-55 895h102l73 -121h-49zM37 0v706h92v-706h-92z" />
<glyph unicode="&#xcd;" horiz-adv-x="167" d="M37 0v706h92v-706h-92zM45 775l71 122h102l-126 -122h-47z" />
<glyph unicode="&#xce;" horiz-adv-x="167" d="M-34 774l90 121h56l90 -120h-57l-61 61l-64 -62h-54zM37 0v706h92v-706h-92z" />
<glyph unicode="&#xcf;" horiz-adv-x="167" d="M-18 777v100h72v-100h-72zM37 0v706h92v-706h-92zM111 777v101h75v-101h-75z" />
<glyph unicode="&#xd0;" horiz-adv-x="354" d="M0 353v68h39v285h171q37 0 58.5 -9.5t32.5 -25.5t14 -36.5t3 -42.5v-470q0 -39 -6 -62.5t-18.5 -37t-31.5 -18t-44 -4.5h-179v353h-39zM132 87h60q18 0 25 7.5t7 31.5v448q0 16 -2.5 25t-8 13.5t-13 6t-16.5 1.5h-52v-199h52v-68h-52v-266z" />
<glyph unicode="&#xd1;" horiz-adv-x="375" d="M41 0v706h100l113 -481q-2 123 -3 224q0 43 -0.5 85.5t-1 78t-1 60.5t-0.5 33h88v-706h-103l-115 518q0 -19 0.5 -51t1.5 -72t1.5 -84.5t1.5 -88.5q2 -103 5 -222h-87zM78 794q0 41 19.5 65.5t47.5 24.5q16 0 30.5 -4.5t27.5 -10.5t25 -10.5t23 -4.5q16 0 19 9.5t4 19.5 h34q0 -13 -3 -28.5t-11 -29t-20.5 -22.5t-32.5 -9q-13 0 -27 4.5t-28 10.5t-26.5 10.5t-23.5 4.5q-13 0 -18 -9.5t-6 -20.5h-34z" />
<glyph unicode="&#xd2;" horiz-adv-x="375" d="M39 158v370q0 24 3.5 55.5t18.5 60t45.5 48t84.5 19.5q47 0 75.5 -15.5t43.5 -41.5t20 -59.5t5 -68.5v-368q0 -51 -13 -83.5t-34 -50.5t-49 -24.5t-58 -6.5t-56 7t-45 26t-30 51t-11 81zM48 895h102l73 -121h-49zM132 144q0 -14 1.5 -27.5t7.5 -24t16.5 -16.5t28.5 -6 q21 0 32.5 7.5t17 19.5t6.5 27t1 30v371q0 56 -9.5 80.5t-44.5 24.5q-21 0 -33 -8.5t-17 -21t-6 -27t-1 -26.5v-403z" />
<glyph unicode="&#xd3;" horiz-adv-x="375" d="M39 158v370q0 24 3.5 55.5t18.5 60t45.5 48t84.5 19.5q47 0 75.5 -15.5t43.5 -41.5t20 -59.5t5 -68.5v-368q0 -51 -13 -83.5t-34 -50.5t-49 -24.5t-58 -6.5t-56 7t-45 26t-30 51t-11 81zM132 144q0 -14 1.5 -27.5t7.5 -24t16.5 -16.5t28.5 -6q21 0 32.5 7.5t17 19.5 t6.5 27t1 30v371q0 56 -9.5 80.5t-44.5 24.5q-21 0 -33 -8.5t-17 -21t-6 -27t-1 -26.5v-403zM149 775l71 122h102l-126 -122h-47z" />
<glyph unicode="&#xd4;" horiz-adv-x="375" d="M39 158v370q0 24 3.5 55.5t18.5 60t45.5 48t84.5 19.5q47 0 75.5 -15.5t43.5 -41.5t20 -59.5t5 -68.5v-368q0 -51 -13 -83.5t-34 -50.5t-49 -24.5t-58 -6.5t-56 7t-45 26t-30 51t-11 81zM69 774l90 121h56l90 -120h-57l-61 61l-64 -62h-54zM132 144q0 -14 1.5 -27.5 t7.5 -24t16.5 -16.5t28.5 -6q21 0 32.5 7.5t17 19.5t6.5 27t1 30v371q0 56 -9.5 80.5t-44.5 24.5q-21 0 -33 -8.5t-17 -21t-6 -27t-1 -26.5v-403z" />
<glyph unicode="&#xd5;" horiz-adv-x="375" d="M39 158v370q0 24 3.5 55.5t18.5 60t45.5 48t84.5 19.5q47 0 75.5 -15.5t43.5 -41.5t20 -59.5t5 -68.5v-368q0 -51 -13 -83.5t-34 -50.5t-49 -24.5t-58 -6.5t-56 7t-45 26t-30 51t-11 81zM78 794q0 41 19.5 65.5t47.5 24.5q16 0 30.5 -4.5t27.5 -10.5t25 -10.5t23 -4.5 q16 0 19 9.5t4 19.5h34q0 -13 -3 -28.5t-11 -29t-20.5 -22.5t-32.5 -9q-13 0 -27 4.5t-28 10.5t-26.5 10.5t-23.5 4.5q-13 0 -18 -9.5t-6 -20.5h-34zM132 144q0 -14 1.5 -27.5t7.5 -24t16.5 -16.5t28.5 -6q21 0 32.5 7.5t17 19.5t6.5 27t1 30v371q0 56 -9.5 80.5t-44.5 24.5 q-21 0 -33 -8.5t-17 -21t-6 -27t-1 -26.5v-403z" />
<glyph unicode="&#xd6;" horiz-adv-x="375" d="M39 158v370q0 24 3.5 55.5t18.5 60t45.5 48t84.5 19.5q47 0 75.5 -15.5t43.5 -41.5t20 -59.5t5 -68.5v-368q0 -51 -13 -83.5t-34 -50.5t-49 -24.5t-58 -6.5t-56 7t-45 26t-30 51t-11 81zM85 777v100h72v-100h-72zM132 144q0 -14 1.5 -27.5t7.5 -24t16.5 -16.5t28.5 -6 q21 0 32.5 7.5t17 19.5t6.5 27t1 30v371q0 56 -9.5 80.5t-44.5 24.5q-21 0 -33 -8.5t-17 -21t-6 -27t-1 -26.5v-403zM214 777v101h75v-101h-75z" />
<glyph unicode="&#xd7;" horiz-adv-x="558" d="M110 410l57 60l114 -114l104 116l52 -52l-105 -116l116 -116l-56 -62l-115 116l-102 -114l-54 50l105 116z" />
<glyph unicode="&#xd8;" horiz-adv-x="375" d="M7 3l39 83q-5 14 -7 27t-2 41v385q0 17 3 46t18 57.5t46 49.5t88 21q26 0 45.5 -4.5t34 -11.5t24.5 -15.5t18 -17.5l25 52l37 -17l-40 -85q2 -9 3.5 -25.5t1.5 -39.5v-398q0 -6 -0.5 -20t-5 -31.5t-13 -36.5t-25 -35t-42 -26t-62.5 -10q-8 0 -22 1t-30.5 5.5t-35 14.5 t-35.5 29l-28 -56zM127 165q2 -15 3 -32t6.5 -31t17.5 -23t34 -9q38 0 49.5 23.5t11.5 68.5v265zM128 261l120 260v33q0 10 -1 24t-6.5 26.5t-17 21t-33.5 8.5q-32 0 -47 -19.5t-15 -67.5v-286z" />
<glyph unicode="&#xd9;" horiz-adv-x="375" d="M40 155v551h91v-558q0 -48 14 -65t42 -17q20 0 31.5 7.5t17 20.5t7 31.5t1.5 40.5v540h92v-535q0 -100 -40 -141t-112 -41q-41 0 -68.5 12.5t-44.5 35t-24 52.5t-7 66zM47 895h102l73 -121h-49z" />
<glyph unicode="&#xda;" horiz-adv-x="375" d="M40 155v551h91v-558q0 -48 14 -65t42 -17q20 0 31.5 7.5t17 20.5t7 31.5t1.5 40.5v540h92v-535q0 -100 -40 -141t-112 -41q-41 0 -68.5 12.5t-44.5 35t-24 52.5t-7 66zM149 775l71 122h102l-126 -122h-47z" />
<glyph unicode="&#xdb;" horiz-adv-x="375" d="M40 155v551h91v-558q0 -48 14 -65t42 -17q20 0 31.5 7.5t17 20.5t7 31.5t1.5 40.5v540h92v-535q0 -100 -40 -141t-112 -41q-41 0 -68.5 12.5t-44.5 35t-24 52.5t-7 66zM69 774l90 121h56l90 -120h-57l-61 61l-64 -62h-54z" />
<glyph unicode="&#xdc;" horiz-adv-x="375" d="M40 155v551h91v-558q0 -48 14 -65t42 -17q20 0 31.5 7.5t17 20.5t7 31.5t1.5 40.5v540h92v-535q0 -100 -40 -141t-112 -41q-41 0 -68.5 12.5t-44.5 35t-24 52.5t-7 66zM85 777v100h72v-100h-72zM214 777v101h75v-101h-75z" />
<glyph unicode="&#xdd;" horiz-adv-x="333" d="M4 706h95l65 -282l71 282h94l-117 -410v-296h-101v295zM129 775l71 122h102l-126 -122h-47z" />
<glyph unicode="&#xde;" horiz-adv-x="333" d="M41 0v706h92v-117h89q36 0 55.5 -9t28.5 -25t11 -38.5t2 -48.5v-135q0 -40 -3 -66t-13 -40t-29 -19.5t-50 -5.5h-92v-202h-91zM133 286h59q18 0 25.5 6.5t7.5 25.5v149q0 20 -6.5 28t-28.5 8h-57v-217z" />
<glyph unicode="&#xdf;" d="M40 0v591q0 17 3 37.5t15 39.5t35.5 31.5t64.5 12.5q55 0 84.5 -27t29.5 -81v-37q0 -18 -1.5 -30.5t-5.5 -20.5t-11 -14.5t-18 -12.5q13 -4 21.5 -10t14 -15.5t7.5 -24t2 -36.5v-295q0 -53 -22 -82.5t-81 -29.5q-8 0 -15.5 0.5t-22.5 3.5v71q2 0 6 -0.5t9 -0.5 q20 0 33 10.5t13 48.5v268q0 21 -4 33.5t-10.5 18.5t-15 7.5t-18.5 1.5h-9v60h10q14 0 22 5t12 14t5 20.5t1 24.5v12q0 20 -6.5 35t-32.5 15q-12 0 -19.5 -4.5t-11 -10.5t-4.5 -13t-1 -12v-604h-79z" />
<glyph unicode="&#xe0;" d="M20 698h102l72 -121h-48zM34 84v90q0 20 1 35t6 27t15 22t27 21l77 48q25 15 32 31v80q0 5 -0.5 11.5t-4 13.5t-10.5 11.5t-20 4.5q-17 0 -26 -8t-9 -31v-76h-82v66q0 23 4.5 44t17.5 36.5t35.5 25t58.5 9.5q23 0 44 -5t37 -17t25.5 -33.5t9.5 -54.5v-354q0 -14 2 -37 t13 -44h-86q-5 11 -7 17.5t-7 25.5q-15 -23 -32 -36t-46 -13q-41 0 -58 22.5t-17 67.5zM114 118q0 -29 6 -44.5t26 -15.5q15 0 24.5 8.5t14 21.5t6 27t1.5 25v125l-50 -35q-14 -10 -21 -22t-7 -32v-58z" />
<glyph unicode="&#xe1;" d="M34 84v90q0 20 1 35t6 27t15 22t27 21l77 48q25 15 32 31v80q0 5 -0.5 11.5t-4 13.5t-10.5 11.5t-20 4.5q-17 0 -26 -8t-9 -31v-76h-82v66q0 23 4.5 44t17.5 36.5t35.5 25t58.5 9.5q23 0 44 -5t37 -17t25.5 -33.5t9.5 -54.5v-354q0 -14 2 -37t13 -44h-86q-5 11 -7 17.5 t-7 25.5q-15 -23 -32 -36t-46 -13q-41 0 -58 22.5t-17 67.5zM114 118q0 -29 6 -44.5t26 -15.5q15 0 24.5 8.5t14 21.5t6 27t1.5 25v125l-50 -35q-14 -10 -21 -22t-7 -32v-58zM120 577l72 121h100l-125 -121h-47z" />
<glyph unicode="&#xe2;" d="M34 84v90q0 20 1 35t6 27t15 22t27 21l77 48q25 15 32 31v80q0 5 -0.5 11.5t-4 13.5t-10.5 11.5t-20 4.5q-17 0 -26 -8t-9 -31v-76h-82v66q0 23 4.5 44t17.5 36.5t35.5 25t58.5 9.5q23 0 44 -5t37 -17t25.5 -33.5t9.5 -54.5v-354q0 -14 2 -37t13 -44h-86q-5 11 -7 17.5 t-7 25.5q-15 -23 -32 -36t-46 -13q-41 0 -58 22.5t-17 67.5zM44 577l91 121h56l89 -121h-57l-60 63l-64 -63h-55zM114 118q0 -29 6 -44.5t26 -15.5q15 0 24.5 8.5t14 21.5t6 27t1.5 25v125l-50 -35q-14 -10 -21 -22t-7 -32v-58z" />
<glyph unicode="&#xe3;" d="M34 84v90q0 20 1 35t6 27t15 22t27 21l77 48q25 15 32 31v80q0 5 -0.5 11.5t-4 13.5t-10.5 11.5t-20 4.5q-17 0 -26 -8t-9 -31v-76h-82v66q0 23 4.5 44t17.5 36.5t35.5 25t58.5 9.5q23 0 44 -5t37 -17t25.5 -33.5t9.5 -54.5v-354q0 -14 2 -37t13 -44h-86q-5 11 -7 17.5 t-7 25.5q-15 -23 -32 -36t-46 -13q-41 0 -58 22.5t-17 67.5zM54 591q0 42 18.5 67t44.5 25q15 0 28.5 -5t26 -10.5t24 -10.5t21.5 -5q15 0 18 10t4 20h32q0 -13 -3 -29t-10 -30t-19.5 -23t-30.5 -9q-12 0 -25.5 5t-26.5 10.5t-25 10.5t-22 5q-13 0 -17.5 -9.5t-5.5 -21.5 h-32zM114 118q0 -29 6 -44.5t26 -15.5q15 0 24.5 8.5t14 21.5t6 27t1.5 25v125l-50 -35q-14 -10 -21 -22t-7 -32v-58z" />
<glyph unicode="&#xe4;" d="M34 84v90q0 20 1 35t6 27t15 22t27 21l77 48q25 15 32 31v80q0 5 -0.5 11.5t-4 13.5t-10.5 11.5t-20 4.5q-17 0 -26 -8t-9 -31v-76h-82v66q0 23 4.5 44t17.5 36.5t35.5 25t58.5 9.5q23 0 44 -5t37 -17t25.5 -33.5t9.5 -54.5v-354q0 -14 2 -37t13 -44h-86q-5 11 -7 17.5 t-7 25.5q-15 -23 -32 -36t-46 -13q-41 0 -58 22.5t-17 67.5zM58 589v100h73v-100h-73zM114 118q0 -29 6 -44.5t26 -15.5q15 0 24.5 8.5t14 21.5t6 27t1.5 25v125l-50 -35q-14 -10 -21 -22t-7 -32v-58zM187 589v100h77v-100h-77z" />
<glyph unicode="&#xe5;" d="M34 84v90q0 20 1 35t6 27t15 22t27 21l77 48q25 15 32 31v80q0 5 -0.5 11.5t-4 13.5t-10.5 11.5t-20 4.5q-17 0 -26 -8t-9 -31v-76h-82v66q0 23 4.5 44t17.5 36.5t35.5 25t58.5 9.5q23 0 44 -5t37 -17t25.5 -33.5t9.5 -54.5v-354q0 -14 2 -37t13 -44h-86q-5 11 -7 17.5 t-7 25.5q-15 -23 -32 -36t-46 -13q-41 0 -58 22.5t-17 67.5zM82 650q0 32 22 53.5t53 21.5q32 0 53.5 -22.5t21.5 -53.5t-22.5 -52.5t-52.5 -21.5q-32 0 -53.5 21.5t-21.5 53.5zM114 118q0 -29 6 -44.5t26 -15.5q15 0 24.5 8.5t14 21.5t6 27t1.5 25v125l-50 -35 q-14 -10 -21 -22t-7 -32v-58zM117 650q0 -18 11.5 -29.5t28.5 -11.5q18 0 29 12t11 30q0 17 -11.5 28.5t-28.5 11.5q-18 0 -29 -12t-11 -29z" />
<glyph unicode="&#xe6;" horiz-adv-x="458" d="M29 76v118q0 20 4.5 33.5t12.5 24t18.5 18.5t23.5 16l84 55q10 7 12 12t2 14v77q0 14 -7.5 24t-27.5 10q-21 0 -29 -11t-8 -32v-72h-80v60q0 35 9 58.5t24.5 37.5t37 20t46.5 6q32 0 48.5 -7t28.5 -16q12 8 29.5 15.5t49.5 7.5q54 0 84.5 -28t30.5 -82v-186h-156v-144 q0 -19 5.5 -33.5t32.5 -14.5q14 0 21.5 4.5t11 11.5t4.5 15.5t1 15.5v94h80v-91q0 -10 -3 -29.5t-14 -38.5t-34 -33.5t-64 -14.5q-28 0 -47 5.5t-31.5 14.5t-19.5 19t-12 19q-1 -2 -6.5 -11.5t-17 -20t-28.5 -18.5t-42 -8q-38 0 -56 20t-18 65zM108 98q0 -4 1 -11t4 -13.5 t9.5 -11t17.5 -4.5q16 0 25 7t13.5 17.5t6 22.5t1.5 22v138q-5 -5 -10 -8t-16 -11l-25 -17q-17 -11 -22 -23.5t-5 -38.5v-69zM266 316h76v117q0 19 -6 32t-30 13q-21 0 -30.5 -10.5t-9.5 -35.5v-116z" />
<glyph unicode="&#xe7;" horiz-adv-x="305" d="M36 105v318q0 34 9.5 57t25.5 37.5t38.5 21t47.5 6.5q63 0 91.5 -32.5t28.5 -95.5v-74h-81v91q0 18 -7 30.5t-33 12.5q-28 0 -34.5 -15.5t-6.5 -37.5v-325q0 -17 8 -29.5t31 -12.5q26 0 34 14.5t8 41.5v100h80v-98q0 -50 -23 -84t-79 -40l-15 -28q15 -1 29.5 -3.5t26 -9 t18.5 -17t7 -26.5q0 -24 -14 -39t-36 -23.5t-48.5 -12t-51.5 -3.5h-26v31h19q12 0 25.5 1t24.5 4.5t18 10t7 16.5q0 9 -5.5 14.5t-14 8.5t-19 4t-19.5 2l-16 1l41 70q-51 8 -70 36.5t-19 76.5z" />
<glyph unicode="&#xe8;" d="M20 698h102l72 -121h-48zM39 101v319q0 54 28.5 89t91.5 35q54 0 86 -28.5t32 -92.5v-173h-159v-151q0 -6 1 -13.5t4.5 -14t11 -11t20.5 -4.5q15 0 23.5 5.5t12.5 13.5t4.5 16.5t0.5 13.5v94h81v-74q0 -66 -29 -100t-93 -34q-23 0 -44 5t-37 18t-25.5 34t-9.5 53z M118 316h78v113q0 10 -1 19t-4.5 15.5t-11 10.5t-20.5 4q-15 0 -23 -5t-12 -13.5t-5 -18.5t-1 -21v-104z" />
<glyph unicode="&#xe9;" d="M39 101v319q0 54 28.5 89t91.5 35q54 0 86 -28.5t32 -92.5v-173h-159v-151q0 -6 1 -13.5t4.5 -14t11 -11t20.5 -4.5q15 0 23.5 5.5t12.5 13.5t4.5 16.5t0.5 13.5v94h81v-74q0 -66 -29 -100t-93 -34q-23 0 -44 5t-37 18t-25.5 34t-9.5 53zM118 316h78v113q0 10 -1 19 t-4.5 15.5t-11 10.5t-20.5 4q-15 0 -23 -5t-12 -13.5t-5 -18.5t-1 -21v-104zM121 577l72 121h100l-125 -121h-47z" />
<glyph unicode="&#xea;" d="M39 101v319q0 54 28.5 89t91.5 35q54 0 86 -28.5t32 -92.5v-173h-159v-151q0 -6 1 -13.5t4.5 -14t11 -11t20.5 -4.5q15 0 23.5 5.5t12.5 13.5t4.5 16.5t0.5 13.5v94h81v-74q0 -66 -29 -100t-93 -34q-23 0 -44 5t-37 18t-25.5 34t-9.5 53zM44 577l91 121h56l89 -121h-57 l-60 63l-64 -63h-55zM118 316h78v113q0 10 -1 19t-4.5 15.5t-11 10.5t-20.5 4q-15 0 -23 -5t-12 -13.5t-5 -18.5t-1 -21v-104z" />
<glyph unicode="&#xeb;" d="M39 101v319q0 54 28.5 89t91.5 35q54 0 86 -28.5t32 -92.5v-173h-159v-151q0 -6 1 -13.5t4.5 -14t11 -11t20.5 -4.5q15 0 23.5 5.5t12.5 13.5t4.5 16.5t0.5 13.5v94h81v-74q0 -66 -29 -100t-93 -34q-23 0 -44 5t-37 18t-25.5 34t-9.5 53zM62 589v100h73v-100h-73z M118 316h78v113q0 10 -1 19t-4.5 15.5t-11 10.5t-20.5 4q-15 0 -23 -5t-12 -13.5t-5 -18.5t-1 -21v-104zM191 589v100h77v-100h-77z" />
<glyph unicode="&#xec;" horiz-adv-x="167" d="M-52 698h102l72 -121h-48zM43 0v536h80v-536h-80z" />
<glyph unicode="&#xed;" horiz-adv-x="167" d="M43 0v536h80v-536h-80zM48 577l72 121h100l-125 -121h-47z" />
<glyph unicode="&#xee;" horiz-adv-x="167" d="M-33 577l91 121h56l89 -121h-57l-60 63l-64 -63h-55zM43 0v536h80v-536h-80z" />
<glyph unicode="&#xef;" horiz-adv-x="167" d="M-15 589v100h73v-100h-73zM43 0v536h80v-536h-80zM114 589v100h77v-100h-77z" />
<glyph unicode="&#xf0;" d="M38 132v267q0 45 8 75t39 51q14 9 28.5 15t34.5 6q10 0 27 -4t26 -15q-4 20 -9.5 36.5t-16.5 36.5l-95 -37l-20 43l85 34q-9 11 -14 16l-9 9t-9 8t-14 12l62 31q21 -16 30 -26t22 -24l49 19l23 -45l-45 -18q11 -18 18.5 -37.5t12 -43.5t6 -54t1.5 -68v-301 q0 -15 -2.5 -36.5t-14.5 -42t-36.5 -34.5t-68.5 -14q-43 0 -66.5 14.5t-35 36t-14 46t-2.5 44.5zM118 105q0 -8 0.5 -16.5t4.5 -15.5t11.5 -11.5t22.5 -4.5t23.5 5t12.5 13t5 17.5t1 18.5v316q0 9 -0.5 18.5t-4.5 16.5t-12 11.5t-22 4.5q-16 0 -24.5 -5.5t-12.5 -14.5 t-4.5 -19t-0.5 -19v-315z" />
<glyph unicode="&#xf1;" d="M39 0v536h80v-35q3 5 9.5 12t16 14.5t22.5 12.5t30 5q24 0 39.5 -8t25 -22t13 -32.5t3.5 -39.5v-443h-82v420q0 21 -6 36.5t-29 15.5q-14 0 -22 -5.5t-12.5 -14t-6 -19.5t-1.5 -22v-411h-80zM49 591q0 42 18.5 67t44.5 25q15 0 28.5 -5t26 -10.5t24 -10.5t21.5 -5 q15 0 18 10t4 20h32q0 -13 -3 -29t-10 -30t-19.5 -23t-30.5 -9q-12 0 -25.5 5t-26.5 10.5t-25 10.5t-22 5q-13 0 -17.5 -9.5t-5.5 -21.5h-32z" />
<glyph unicode="&#xf2;" d="M20 698h102l72 -121h-48zM38 144v267q0 23 5 47t18.5 43t37.5 31t60 12q61 0 90 -28t29 -94v-304q0 -24 -5 -47t-18 -41t-36.5 -28.5t-61.5 -10.5q-41 0 -64.5 12t-35.5 33t-15.5 49t-3.5 59zM118 104q0 -24 7.5 -35.5t30.5 -11.5q29 0 36 16t7 38v316q0 20 -6 35.5 t-33 15.5q-25 0 -33.5 -14.5t-8.5 -43.5v-316z" />
<glyph unicode="&#xf3;" d="M38 144v267q0 23 5 47t18.5 43t37.5 31t60 12q61 0 90 -28t29 -94v-304q0 -24 -5 -47t-18 -41t-36.5 -28.5t-61.5 -10.5q-41 0 -64.5 12t-35.5 33t-15.5 49t-3.5 59zM118 104q0 -24 7.5 -35.5t30.5 -11.5q29 0 36 16t7 38v316q0 20 -6 35.5t-33 15.5q-25 0 -33.5 -14.5 t-8.5 -43.5v-316zM121 577l72 121h100l-125 -121h-47z" />
<glyph unicode="&#xf4;" d="M38 144v267q0 23 5 47t18.5 43t37.5 31t60 12q61 0 90 -28t29 -94v-304q0 -24 -5 -47t-18 -41t-36.5 -28.5t-61.5 -10.5q-41 0 -64.5 12t-35.5 33t-15.5 49t-3.5 59zM44 577l91 121h56l89 -121h-57l-60 63l-64 -63h-55zM118 104q0 -24 7.5 -35.5t30.5 -11.5q29 0 36 16 t7 38v316q0 20 -6 35.5t-33 15.5q-25 0 -33.5 -14.5t-8.5 -43.5v-316z" />
<glyph unicode="&#xf5;" d="M38 144v267q0 23 5 47t18.5 43t37.5 31t60 12q61 0 90 -28t29 -94v-304q0 -24 -5 -47t-18 -41t-36.5 -28.5t-61.5 -10.5q-41 0 -64.5 12t-35.5 33t-15.5 49t-3.5 59zM54 591q0 42 18.5 67t44.5 25q15 0 28.5 -5t26 -10.5t24 -10.5t21.5 -5q15 0 18 10t4 20h32 q0 -13 -3 -29t-10 -30t-19.5 -23t-30.5 -9q-12 0 -25.5 5t-26.5 10.5t-25 10.5t-22 5q-13 0 -17.5 -9.5t-5.5 -21.5h-32zM118 104q0 -24 7.5 -35.5t30.5 -11.5q29 0 36 16t7 38v316q0 20 -6 35.5t-33 15.5q-25 0 -33.5 -14.5t-8.5 -43.5v-316z" />
<glyph unicode="&#xf6;" d="M38 144v267q0 23 5 47t18.5 43t37.5 31t60 12q61 0 90 -28t29 -94v-304q0 -24 -5 -47t-18 -41t-36.5 -28.5t-61.5 -10.5q-41 0 -64.5 12t-35.5 33t-15.5 49t-3.5 59zM57 589v100h73v-100h-73zM118 104q0 -24 7.5 -35.5t30.5 -11.5q29 0 36 16t7 38v316q0 20 -6 35.5 t-33 15.5q-25 0 -33.5 -14.5t-8.5 -43.5v-316zM186 589v100h77v-100h-77z" />
<glyph unicode="&#xf7;" horiz-adv-x="559" d="M79 260v75h401v-75h-401zM234 394v110h92v-110h-92zM235 90v111h92v-111h-92z" />
<glyph unicode="&#xf8;" d="M19 3l27 59q-4 12 -6 20.5t-2 29.5v304q0 35 9.5 59.5t26.5 39.5t39.5 22t47.5 7q5 0 15.5 -0.5t23 -3.5t26.5 -10t27 -20l19 37l28 -15l-27 -61q3 -17 3.5 -25t0.5 -17v-319q0 -44 -15.5 -68.5t-35.5 -36t-40 -13.5t-29 -2q-39 0 -59 12t-33 24l-18 -37zM117 97 q0 -23 12 -31t27 -8t23.5 6t12.5 14.5t5 18.5t1 19v196l-81 -172v-43zM117 216l82 171v44q0 5 -0.5 12.5t-4.5 15t-11.5 13t-22.5 5.5t-23.5 -5.5t-13 -14t-5.5 -19t-1 -20.5v-202z" />
<glyph unicode="&#xf9;" d="M20 698h102l72 -121h-48zM36 96v440h83v-438q0 -15 9 -24.5t28 -9.5q14 0 22 6t12 15t5 20t1 21v410h80v-536h-80v34q-3 -4 -9.5 -11.5t-16 -15t-22.5 -12.5t-31 -5q-25 0 -41 9t-25 24t-12 34t-3 39z" />
<glyph unicode="&#xfa;" d="M36 96v440h83v-438q0 -15 9 -24.5t28 -9.5q14 0 22 6t12 15t5 20t1 21v410h80v-536h-80v34q-3 -4 -9.5 -11.5t-16 -15t-22.5 -12.5t-31 -5q-25 0 -41 9t-25 24t-12 34t-3 39zM120 577l72 121h100l-125 -121h-47z" />
<glyph unicode="&#xfb;" d="M36 96v440h83v-438q0 -15 9 -24.5t28 -9.5q14 0 22 6t12 15t5 20t1 21v410h80v-536h-80v34q-3 -4 -9.5 -11.5t-16 -15t-22.5 -12.5t-31 -5q-25 0 -41 9t-25 24t-12 34t-3 39zM38 577l91 121h56l89 -121h-57l-60 63l-64 -63h-55z" />
<glyph unicode="&#xfc;" d="M36 96v440h83v-438q0 -15 9 -24.5t28 -9.5q14 0 22 6t12 15t5 20t1 21v410h80v-536h-80v34q-3 -4 -9.5 -11.5t-16 -15t-22.5 -12.5t-31 -5q-25 0 -41 9t-25 24t-12 34t-3 39zM58 589v100h73v-100h-73zM187 589v100h77v-100h-77z" />
<glyph unicode="&#xfd;" horiz-adv-x="271" d="M4 536h82l47 -425l49 425h83l-101 -593q-2 -13 -6 -28t-14 -28t-29 -21.5t-52 -8.5q-10 0 -20 0.5t-21 1.5v77q10 0 21 0.5t20.5 5t16 14.5t6.5 28v11.5t-2 14.5zM100 577l72 121h100l-125 -121h-47z" />
<glyph unicode="&#xfe;" d="M37 -145v851h82v-209q8 17 20 26.5t23.5 14t20.5 5.5t12 1q28 0 44 -11t24 -26t10 -30.5t2 -24.5v-358q0 -9 -2 -25.5t-10 -33t-24.5 -29t-45.5 -12.5q-32 0 -48.5 15.5t-26.5 29.5v-184h-81zM118 111q0 -20 9.5 -32.5t28.5 -12.5q25 0 32 16t7 35v303q0 8 -0.5 17.5 t-4 17.5t-10.5 13t-21 5q-15 0 -23.5 -6.5t-12 -16t-4.5 -20t-1 -19.5v-300z" />
<glyph unicode="&#xff;" horiz-adv-x="271" d="M4 536h82l47 -425l49 425h83l-101 -593q-2 -13 -6 -28t-14 -28t-29 -21.5t-52 -8.5q-10 0 -20 0.5t-21 1.5v77q10 0 21 0.5t20.5 5t16 14.5t6.5 28v11.5t-2 14.5zM36 589v100h73v-100h-73zM165 589v100h77v-100h-77z" />
<glyph unicode="&#x131;" horiz-adv-x="167" d="M43 0v536h80v-536h-80z" />
<glyph unicode="&#x141;" horiz-adv-x="292" d="M0 192v86l43 49v379h93v-272l97 110v-87l-97 -110v-260h154v-87h-247v241z" />
<glyph unicode="&#x142;" horiz-adv-x="167" d="M0 263v81l42 46v316h82v-228l43 47v-84l-43 -46v-395h-82v308z" />
<glyph unicode="&#x152;" horiz-adv-x="479" d="M39 158v347q0 53 2.5 84.5t12.5 55.5q9 20 23 32.5t31.5 19.5t37 9.5t39.5 2.5q23 0 34.5 -1t24.5 -2h215v-87h-143v-209h123v-86h-124v-239h151v-85h-237q-13 -2 -25.5 -3t-26.5 -1q-49 0 -77 18.5t-41.5 44.5t-16.5 53.5t-3 45.5zM126 175q0 -26 1.5 -44t6.5 -29 t14.5 -16t26.5 -5q32 0 39.5 21t7.5 56v421q0 5 -1.5 12.5t-6 14.5t-13.5 12t-24 5q-18 0 -28 -6.5t-15 -16t-6.5 -21t-1.5 -21.5v-383z" />
<glyph unicode="&#x153;" horiz-adv-x="479" d="M37 105v322q0 18 4.5 39t17 39t36 30t62.5 12q24 0 44.5 -5.5t39.5 -19.5q26 18 47 21.5t35 3.5q42 0 66 -13.5t36 -32t15 -38t3 -30.5v-183h-163v-144q0 -19 7.5 -33.5t33.5 -14.5q15 0 23.5 5.5t12.5 14t4.5 18t0.5 17.5v85h81v-81q0 -64 -31.5 -95.5t-88.5 -31.5 q-21 0 -35 3.5t-24 8t-15.5 9.5t-8.5 7q-11 -8 -31 -18t-53 -10q-24 0 -45.5 5t-38 18t-26 35.5t-9.5 56.5zM116 106q0 -6 0.5 -14.5t4.5 -16.5t12 -13.5t23 -5.5t23.5 5t13 13t6 17t1.5 18v317q0 9 -1 18.5t-5 17t-13 12.5t-24 5q-20 0 -30.5 -11.5t-10.5 -40.5v-321z M281 316h82v113q0 8 -1 17t-5 16.5t-12 12t-23 4.5t-23.5 -5.5t-12.5 -14.5t-4.5 -20t-0.5 -22v-101z" />
<glyph unicode="&#x160;" horiz-adv-x="333" d="M32 141v117h86v-129q0 -34 10.5 -51t37.5 -17q17 0 26 8.5t13 21.5t5 28.5t1 29.5q0 31 -7.5 56.5t-18.5 48t-25 42.5t-27 40l-38 58q-21 32 -39 74t-18 106q0 28 7.5 54t25 46.5t44.5 33t66 12.5t62 -11t36 -28.5t17 -39t4 -42.5v-125h-85v121q0 7 -1 16t-4.5 17 t-11 13.5t-20.5 5.5q-17 0 -26 -6.5t-13.5 -17t-5.5 -23.5t-1 -25q0 -54 18.5 -90.5t43.5 -73.5l50 -74q32 -48 47 -90.5t15 -83.5q0 -16 -2.5 -45.5t-16 -58.5t-41.5 -50.5t-80 -21.5q-43 0 -67 14t-36 28q-22 26 -26.5 53.5t-4.5 58.5zM53 895h57l61 -61l63 62h55 l-91 -120h-55z" />
<glyph unicode="&#x161;" horiz-adv-x="292" d="M24 146v51h76v-63q0 -35 8 -54t39 -19q24 0 33 17.5t9 52.5q0 31 -11.5 51t-32.5 41l-43 43q-19 19 -32.5 36t-21.5 34t-12 35.5t-4 40.5q0 28 6.5 52t21 41.5t37 27.5t54.5 10q6 0 17.5 -1t25.5 -5.5t28 -14.5t24 -28q6 -10 9 -21.5t5 -25.5t2.5 -31.5t0.5 -40.5h-74 q0 42 -6 68t-36 26q-26 0 -33 -15t-7 -35q0 -31 11 -48.5t32 -37.5l37 -36q25 -24 41 -44t25 -39t12 -39t3 -44q0 -15 -4 -39.5t-17.5 -47t-37.5 -39t-65 -16.5q-9 0 -31.5 3.5t-45.5 20.5q-16 12 -24.5 27.5t-12.5 33t-5 36t-1 36.5zM35 698h57l59 -62l65 62h55l-91 -121 h-56z" />
<glyph unicode="&#x178;" horiz-adv-x="333" d="M4 706h95l65 -282l71 282h94l-117 -410v-296h-101v295zM65 777v100h72v-100h-72zM194 777v101h75v-101h-75z" />
<glyph unicode="&#x17d;" horiz-adv-x="292" d="M15 0v62l167 562h-127v82h225v-61l-166 -560h151v-85h-250zM37 895h57l61 -61l63 62h55l-91 -120h-55z" />
<glyph unicode="&#x17e;" horiz-adv-x="271" d="M11 0v76l163 385h-129v75h216v-77l-163 -383h159v-76h-246zM30 698h57l59 -62l65 62h55l-91 -121h-56z" />
<glyph unicode="&#x192;" horiz-adv-x="271" d="M-11 -125l8 69h14q16 0 24 6.5t10 24.5l57 493h-44l8 66h45l10 94q1 12 3.5 25.5t10.5 25t24 19.5t44 8q14 0 26 -0.5t27 -2.5l-8 -68h-13q-12 0 -18.5 -2.5t-10 -7t-4.5 -10t-2 -11.5l-8 -70h47l-8 -66h-47l-60 -517q-1 -13 -4 -27t-11 -25t-23.5 -18.5t-42.5 -7.5 q-15 0 -27 0.5t-27 1.5z" />
<glyph unicode="&#x2c6;" horiz-adv-x="208" d="M-14 577l91 121h56l89 -121h-57l-60 63l-64 -63h-55z" />
<glyph unicode="&#x2c7;" horiz-adv-x="208" d="M-14 698h57l59 -62l65 62h55l-91 -121h-56z" />
<glyph unicode="&#x2d8;" horiz-adv-x="209" d="M-3 697h35q3 -21 12 -33.5t20 -19t21.5 -8.5t16.5 -2q22 0 35 7t20.5 17t11 21t5.5 18h38q-1 -25 -8 -46.5t-19.5 -37.5t-32.5 -25t-48 -9q-39 0 -60.5 15t-32 35t-12.5 39.5t-2 28.5z" />
<glyph unicode="&#x2d9;" horiz-adv-x="209" d="M66 589v100h77v-100h-77z" />
<glyph unicode="&#x2da;" horiz-adv-x="209" d="M29 650q0 32 22 53.5t53 21.5q32 0 53.5 -22.5t21.5 -53.5t-22.5 -52.5t-52.5 -21.5q-32 0 -53.5 21.5t-21.5 53.5zM64 650q0 -18 11.5 -29.5t28.5 -11.5q18 0 29 12t11 30q0 17 -11.5 28.5t-28.5 11.5q-18 0 -29 -12t-11 -29z" />
<glyph unicode="&#x2db;" horiz-adv-x="209" d="M40 -104q0 29 14 52.5t34 51.5h68q-14 -15 -30 -36t-16 -38q0 -10 8 -18.5t25 -8.5q8 0 14.5 0.5t11.5 0.5v-61h-36q-14 0 -30.5 1.5t-30.5 7t-23 17t-9 31.5z" />
<glyph unicode="&#x2dc;" horiz-adv-x="208" d="M-5 591q0 42 18.5 67t44.5 25q15 0 28.5 -5t26 -10.5t24 -10.5t21.5 -5q15 0 18 10t4 20h32q0 -13 -3 -29t-10 -30t-19.5 -23t-30.5 -9q-12 0 -25.5 5t-26.5 10.5t-25 10.5t-22 5q-13 0 -17.5 -9.5t-5.5 -21.5h-32z" />
<glyph unicode="&#x2dd;" horiz-adv-x="209" d="M-34 577l71 121h88l-116 -121h-43zM83 577l71 121h88l-116 -121h-43z" />
<glyph unicode="&#x37e;" horiz-adv-x="187" d="M69 0v132h82v-121q0 -26 -3 -47.5t-11.5 -39t-24 -32.5t-39.5 -27v23q25 18 30.5 39t5.5 47v26h-40zM70 324v129h82v-129h-82z" />
<glyph unicode="&#x394;" horiz-adv-x="407" d="M3 0l158 706h89l155 -706h-402zM122 90h163l-81 444z" />
<glyph unicode="&#x3a9;" horiz-adv-x="352" d="M21 0v72h76q-19 17 -32 39t-21 54t-11 76t-3 104v187q0 52 9.5 87.5t27.5 57t45.5 30.5t63.5 9q44 0 73 -13.5t47 -41.5q15 -23 20.5 -53.5t5.5 -87.5v-175q0 -59 -2.5 -101.5t-10 -74t-20.5 -54.5t-33 -43h76v-72h-138v73q10 9 17.5 26.5t12 47.5t7 74.5t2.5 107.5v213 q0 50 -13.5 74t-43.5 24q-31 0 -45 -27q-3 -7 -5.5 -14t-3.5 -17t-1.5 -24.5t-0.5 -36.5v-192q0 -55 1 -96.5t5 -72.5t12 -52t21 -35v-73h-138z" />
<glyph unicode="&#x3bc;" d="M34 -145v681h83v-420q0 -29 8 -40.5t28 -11.5q22 0 31.5 14.5t9.5 46.5v411h80v-460q0 -27 3 -44t11 -32h-77q-5 11 -8 19t-5 20q-6 -24 -17 -34t-30 -10q-11 0 -18 2.5t-16 10.5v-153h-83z" />
<glyph unicode="&#x3c0;" horiz-adv-x="372" d="M31 461v74h309v-74h-34v-340q0 -18 2 -28t6.5 -14.5t11 -5.5t16.5 -1h5v-72q-8 -1 -12 -1h-7q-52 0 -77 22.5t-25 82.5v357h-82v-461h-80v461h-33z" />
<glyph unicode="&#x2013;" horiz-adv-x="348" d="M26 249v84h296v-84h-296z" />
<glyph unicode="&#x2014;" horiz-adv-x="495" d="M26 249v84h443v-84h-443z" />
<glyph unicode="&#x2018;" horiz-adv-x="146" d="M33 440v107q0 31 2 53t9.5 40t23 33t42.5 31v-22q-25 -18 -31 -41t-6 -50v-22h40v-129h-80z" />
<glyph unicode="&#x2019;" horiz-adv-x="146" d="M32 577v129h80v-107q0 -30 -1.5 -52.5t-9 -40.5t-23 -33t-42.5 -31v22q26 19 31 43.5t5 52.5v17h-40z" />
<glyph unicode="&#x201a;" horiz-adv-x="146" d="M31 0v129h80v-107q0 -30 -1.5 -52.5t-9 -40.5t-23 -33t-42.5 -31v22q25 18 30.5 41t5.5 50v22h-40z" />
<glyph unicode="&#x201c;" horiz-adv-x="292" d="M47 442v107q0 31 2 53t9.5 40t22.5 33t42 31v-22q-25 -18 -30.5 -41t-5.5 -50v-22h40v-129h-80zM178 442v107q0 31 2 53t9.5 40t22.5 33t42 31v-22q-25 -18 -30.5 -41t-5.5 -50v-22h40v-129h-80z" />
<glyph unicode="&#x201d;" horiz-adv-x="292" d="M41 575v131h80v-108q0 -30 -1.5 -52.5t-9 -40.5t-23 -33t-42.5 -31v22q25 19 30.5 41.5t5.5 49.5v21h-40zM174 575v131h80v-109q0 -29 -1.5 -51t-9 -40t-23 -33.5t-42.5 -31.5v21q26 19 31 43.5t5 52.5v17h-40z" />
<glyph unicode="&#x201e;" horiz-adv-x="292" d="M38 0v129h80v-107q0 -30 -1.5 -52.5t-9 -40.5t-23 -33t-42.5 -31v22q25 18 30.5 41t5.5 50v22h-40zM169 0v129h80v-107q0 -31 -1.5 -53t-9 -40t-23 -33t-42.5 -31v22q25 18 30.5 41t5.5 50v22h-40z" />
<glyph unicode="&#x2020;" horiz-adv-x="333" d="M16 404v73h114v229h79v-229h113v-73h-113v-517h-79v517h-114z" />
<glyph unicode="&#x2021;" horiz-adv-x="333" d="M16 121v73h112v248h-112v72h112v192h78v-192h111v-72h-111v-248h111v-73h-111v-234h-78v234h-112z" />
<glyph unicode="&#x2022;" horiz-adv-x="333" d="M60 224v264h213v-264h-213z" />
<glyph unicode="&#x2026;" horiz-adv-x="1000" d="M118 0v111h98v-111h-98zM451 0v111h98v-111h-98zM784 0v111h98v-111h-98z" />
<glyph unicode="&#x2030;" horiz-adv-x="812" d="M22 395v195q0 19 1.5 40.5t10.5 39.5t28 30t54 12q34 0 52.5 -11.5t27 -29t10 -37.5t1.5 -37v-234q0 -14 -1.5 -32t-10 -34t-27 -27t-53.5 -11t-54 11.5t-27.5 30.5t-10 43.5t-1.5 50.5zM80 363q0 -21 4.5 -37.5t30.5 -16.5q13 0 20 4t10 11.5t3.5 17t0.5 21.5v252 q0 9 -0.5 18t-3.5 16t-10 11t-20 4q-25 0 -30 -14t-5 -35v-252zM115 -5l308 736l49 -20l-309 -736zM376 130v195q0 19 1.5 40.5t10.5 39.5t28 30t54 12q34 0 52.5 -11.5t27 -29t10 -37.5t1.5 -37v-234q0 -14 -1.5 -32t-10 -34t-27 -27t-53.5 -11t-54 11.5t-27.5 30.5 t-10 43.5t-1.5 50.5zM434 98q0 -21 4.5 -37.5t30.5 -16.5q13 0 20 4t10 11.5t3.5 17t0.5 21.5v252q0 9 -0.5 18t-3.5 16t-10 11t-20 4q-25 0 -30 -14t-5 -35v-252zM605 130v195q0 19 1.5 40.5t10.5 39.5t28 30t54 12q34 0 52.5 -11.5t27 -29t10 -37.5t1.5 -37v-234 q0 -14 -1.5 -32t-10 -34t-27 -27t-53.5 -11t-54 11.5t-27.5 30.5t-10 43.5t-1.5 50.5zM663 98q0 -21 4.5 -37.5t30.5 -16.5q13 0 20 4t10 11.5t3.5 17t0.5 21.5v252q0 9 -0.5 18t-3.5 16t-10 11t-20 4q-25 0 -30 -14t-5 -35v-252z" />
<glyph unicode="&#x2039;" horiz-adv-x="187" d="M28 273v105l131 119v-100l-78 -72l79 -71v-100z" />
<glyph unicode="&#x203a;" horiz-adv-x="187" d="M28 396v98l133 -116v-108l-132 -116v100l79 71z" />
<glyph unicode="&#x2044;" horiz-adv-x="125" d="M-115 -5l309 736l49 -20l-309 -736z" />
<glyph unicode="&#x20ac;" horiz-adv-x="413" d="M17 283l11 55h58v44h-67l11 55h55v74q0 38 4 73t28 67q26 35 62 48.5t79 13.5q39 0 75 -10.5t65 -38.5l-25 -82q-43 57 -114 57q-29 0 -46.5 -8t-26.5 -23t-12 -35.5t-3 -45.5v-90h174l-15 -54h-158v-45h150l-15 -55h-136v-99q0 -27 3.5 -48.5t13.5 -37.5t28.5 -24.5 t48.5 -8.5q36 0 65 13.5t53 39.5v-92q-33 -19 -69 -26.5t-74 -7.5q-44 0 -81.5 17t-57.5 59q-11 24 -13.5 56t-2.5 58v101h-68z" />
<glyph unicode="&#x2122;" horiz-adv-x="567" d="M6 649v57h197v-57h-67v-275h-65v275h-65zM230 374v332h95l56 -251l54 251h97v-332h-62q0 19 1 63t2 90q1 54 2 115l-61 -268h-68l-60 267q1 -64 2 -119q0 -23 0.5 -46.5t1 -43.5t0.5 -35v-23h-60z" />
<glyph unicode="&#x2202;" horiz-adv-x="386" d="M29 207q0 50 10.5 91t29.5 70t46.5 45t60.5 16q54 0 96 -51v26q0 64 -6 108.5t-18 72.5t-30.5 40.5t-42.5 12.5q-14 0 -26 -2t-32 -9l-6 76q21 7 38.5 10t37.5 3q90 0 128 -78t38 -247q0 -197 -39.5 -299.5t-123.5 -102.5q-75 0 -118 59t-43 159zM112 210 q0 -69 19.5 -109t53.5 -40q21 0 36 17.5t25.5 49t15.5 75.5t5 97q-39 56 -84 56q-33 0 -52 -39t-19 -107z" />
<glyph unicode="&#x2206;" horiz-adv-x="407" d="M3 0l158 706h89l155 -706h-402zM122 90h163l-81 444z" />
<glyph unicode="&#x220f;" horiz-adv-x="423" d="M66 -122v828h291v-828h-91v737h-109v-737h-91z" />
<glyph unicode="&#x2211;" horiz-adv-x="358" d="M34 -47l152 349l-152 329v75h286v-89h-181l150 -312l-154 -336h185v-91h-286v75z" />
<glyph unicode="&#x221a;" horiz-adv-x="559" d="M45 156l138 54l86 -251l155 747h89l-194 -891h-81l-107 291l-57 -24z" />
<glyph unicode="&#x221e;" horiz-adv-x="559" d="M21 289q0 38 10 69t27.5 54t42 35.5t54.5 12.5q38 0 67 -23t63 -79q31 53 62 77.5t72 24.5q55 0 87.5 -43t32.5 -114q0 -39 -9.5 -71t-26.5 -54.5t-40.5 -35t-52.5 -12.5q-46 0 -74.5 24t-60.5 76q-18 -27 -33.5 -46t-30.5 -30.5t-31.5 -17t-36.5 -5.5q-56 0 -89 43 t-33 115zM93 292q0 -38 15 -62.5t39 -24.5q19 0 37 15.5t44 60.5l7 13q-28 51 -45.5 71t-39.5 20q-26 0 -41.5 -25.5t-15.5 -67.5zM321 295q28 -50 45.5 -70.5t39.5 -20.5q25 0 40.5 25.5t15.5 67.5q0 38 -15 62.5t-38 24.5q-10 0 -18.5 -4t-18.5 -13.5t-22 -27t-29 -44.5z " />
<glyph unicode="&#x222b;" horiz-adv-x="274" d="M2 -81q14 -9 24 -13t22 -4q15 0 23.5 5.5t12 18.5t4.5 35.5t1 57.5v559q0 44 8 71t22 42.5t34 21t45 5.5q17 0 29 -3t32 -11v-81q-28 18 -48 18q-23 0 -29 -18t-6 -43v-578q0 -40 -2 -72.5t-13 -56t-33.5 -36.5t-64.5 -13q-17 0 -30.5 2.5t-30.5 8.5v84z" />
<glyph unicode="&#x2248;" horiz-adv-x="565" d="M64 215q17 20 31.5 34t28.5 22t28.5 11.5t32.5 3.5t35.5 -4.5t42.5 -15.5l54 -23q25 -11 37 -14.5t23 -3.5q22 0 41.5 12t45.5 41l37 -62q-33 -37 -63 -54t-61 -17q-19 0 -38.5 6t-52.5 21l-26 12q-26 12 -43 17t-33 5q-21 0 -38 -9t-37 -35l-7 -9zM64 386q17 20 31.5 34 t28.5 22t28.5 11.5t32.5 3.5q20 0 36 -4.5t42 -15.5l54 -23q26 -10 37 -14t23 -4q21 0 40.5 11.5t45.5 40.5l38 -61q-32 -38 -64 -54.5t-61 -16.5q-18 0 -37.5 6t-52.5 21l-26 12q-26 12 -43 16.5t-33 4.5q-25 0 -45 -14t-38 -38z" />
<glyph unicode="&#x2260;" horiz-adv-x="559" d="M85 179v74h138l43 98h-181v73h211l56 129h70l-56 -129h108v-73h-138l-43 -98h181v-74h-212l-60 -139h-70l60 139h-107z" />
<glyph unicode="&#x2264;" horiz-adv-x="559" d="M90 0v76h359v-76h-359zM90 306v81l359 194v-86l-275 -145l275 -146v-91z" />
<glyph unicode="&#x2265;" horiz-adv-x="559" d="M109 0v76h360v-76h-360zM109 113v86l276 145l-276 146v92l360 -194v-80z" />
<glyph unicode="&#x25ca;" horiz-adv-x="559" d="M81 356l157 350h79l162 -351l-163 -355h-79zM169 355l110 -271l111 273l-112 265z" />
<glyph unicode="&#xe000;" horiz-adv-x="535" d="M0 0v535h535v-535h-535z" />
</font>
</defs>
</svg>
